<svg width="46" height="46" viewBox="0 0 46 46" fill="none" xmlns="http://www.w3.org/2000/svg">
<g id="fi-rr-angle-right" clip-path="url(#clip0_532_926)">
<path id="Vector" d="M2.61512e-05 13.4163C-0.00143221 13.1641 0.0469149 12.914 0.142297 12.6805C0.237679 12.447 0.378222 12.2346 0.555861 12.0555C0.734039 11.8758 0.946023 11.7332 1.17959 11.6359C1.41315 11.5386 1.66367 11.4885 1.91669 11.4885C2.16971 11.4885 2.42023 11.5386 2.6538 11.6359C2.88736 11.7332 3.09934 11.8758 3.27752 12.0555L18.9367 27.7146C20.0148 28.7914 21.4762 29.3962 23 29.3962C24.5238 29.3962 25.9852 28.7914 27.0633 27.7146L42.7225 12.0555C43.0834 11.6946 43.5729 11.4918 44.0833 11.4918C44.5937 11.4918 45.0832 11.6946 45.4441 12.0555C45.8051 12.4164 46.0078 12.9059 46.0078 13.4163C46.0078 13.9267 45.8051 14.4162 45.4441 14.7771L29.785 30.4363C28.8948 31.3288 27.8373 32.0368 26.673 32.52C25.5087 33.0031 24.2605 33.2518 23 33.2518C21.7395 33.2518 20.4913 33.0031 19.327 32.52C18.1627 32.0368 17.1052 31.3288 16.215 30.4363L0.555861 14.7771C0.378221 14.598 0.237679 14.3856 0.142297 14.1521C0.0469148 13.9186 -0.00143224 13.6685 2.61512e-05 13.4163Z" fill="#454545"/>
</g>
<defs>
<clipPath id="clip0_532_926">
<rect width="46" height="46" fill="white" transform="translate(46) rotate(90)"/>
</clipPath>
</defs>
</svg>
