<svg width="25" height="25" viewBox="0 0 25 25" fill="none" xmlns="http://www.w3.org/2000/svg">
<path d="M23.0429 7.9C21.2679 3.8382 17.2147 1 12.4997 1C7.78417 1 3.73099 3.8382 1.95654 7.9" stroke="#374957" stroke-width="2" stroke-linecap="round" stroke-linejoin="round"/>
<path d="M12.5003 6.75C11.4064 7.81952 10.5376 9.09715 9.94511 10.5076C9.3526 11.9181 9.04836 13.4329 9.0503 14.9627C9.0503 15.2502 9.06065 15.5354 9.08193 15.8183C10.1664 16.8868 11.0272 18.1606 11.6141 19.5653C12.2011 20.97 12.5023 22.4776 12.5003 24C12.4982 22.4775 12.7994 20.9698 13.3863 19.565C13.9733 18.1601 14.8341 16.8863 15.9187 15.8178C16.0455 14.1484 15.8051 12.4715 15.2146 10.905C14.624 9.33843 13.6976 7.92021 12.5003 6.75Z" stroke="#374957" stroke-width="2" stroke-linecap="round" stroke-linejoin="round"/>
<path d="M1 12.5C1 18.8515 6.14855 24 12.5 24C12.5021 22.4775 12.2009 20.9698 11.614 19.565C11.027 18.1602 10.1662 16.8863 9.08163 15.8178C6.93129 13.6885 4.0262 12.4958 1 12.5Z" stroke="#374957" stroke-width="2" stroke-linecap="round" stroke-linejoin="round"/>
<path d="M24 12.5C24 18.8515 18.8515 24 12.5 24C12.4979 22.4775 12.7991 20.9698 13.3861 19.565C13.973 18.1602 14.8338 16.8863 15.9184 15.8178C18.0687 13.6885 20.9738 12.4958 24 12.5Z" stroke="#374957" stroke-width="2" stroke-linecap="round" stroke-linejoin="round"/>
</svg>
