<svg width="143" height="143" viewBox="0 0 143 143" fill="none" xmlns="http://www.w3.org/2000/svg">
<g id="fi-rr-following" clip-path="url(#clip0_169_2246)">
<path id="Vector" d="M53.625 71.4996C60.6957 71.4996 67.6076 69.4029 73.4866 65.4747C79.3657 61.5464 83.9479 55.963 86.6537 49.4306C89.3595 42.8981 90.0675 35.71 88.6881 28.7752C87.3087 21.8404 83.9038 15.4703 78.9041 10.4706C73.9043 5.47085 67.5343 2.066 60.5995 0.686576C53.6647 -0.692846 46.4765 0.0151238 39.9441 2.72096C33.4116 5.42679 27.8282 10.009 23.9 15.888C19.9717 21.7671 17.875 28.679 17.875 35.7496C17.8845 45.2282 21.654 54.3159 28.3564 61.0183C35.0588 67.7206 44.1464 71.4902 53.625 71.4996ZM53.625 11.9163C58.3388 11.9163 62.9467 13.3141 66.8661 15.933C70.7855 18.5518 73.8402 22.2741 75.6441 26.629C77.448 30.984 77.92 35.7761 77.0004 40.3993C76.0808 45.0225 73.8109 49.2692 70.4777 52.6024C67.1446 55.9355 62.8979 58.2054 58.2747 59.125C53.6514 60.0446 48.8594 59.5727 44.5044 57.7688C40.1494 55.9649 36.4271 52.9101 33.8083 48.9907C31.1895 45.0714 29.7917 40.4634 29.7917 35.7496C29.7917 29.4287 32.3027 23.3666 36.7723 18.8969C41.2419 14.4273 47.304 11.9163 53.625 11.9163Z" fill="#454545"/>
<path id="Vector_2" d="M53.625 83.4147C39.4081 83.4321 25.7784 89.0874 15.7256 99.1402C5.67267 109.193 0.0173444 122.823 0 137.04C0 138.62 0.627751 140.135 1.74516 141.253C2.86256 142.37 4.37809 142.998 5.95833 142.998C7.53858 142.998 9.05411 142.37 10.1715 141.253C11.2889 140.135 11.9167 138.62 11.9167 137.04C11.9167 125.978 16.3109 115.369 24.1328 107.547C31.9546 99.7256 42.5633 95.3314 53.625 95.3314C64.6867 95.3314 75.2954 99.7256 83.1172 107.547C90.9391 115.369 95.3333 125.978 95.3333 137.04C95.3333 138.62 95.9611 140.135 97.0785 141.253C98.1959 142.37 99.7114 142.998 101.292 142.998C102.872 142.998 104.387 142.37 105.505 141.253C106.622 140.135 107.25 138.62 107.25 137.04C107.233 122.823 101.577 109.193 91.5245 99.1402C81.4716 89.0874 67.8419 83.4321 53.625 83.4147Z" fill="#454545"/>
<path id="Vector_3" d="M131.083 46.9219C127.767 47.0871 124.651 48.559 122.418 51.0157C120.185 53.4723 119.015 56.7136 119.166 60.0302C119.317 56.7136 118.147 53.4723 115.914 51.0157C113.681 48.559 110.565 47.0871 107.249 46.9219C103.933 47.0871 100.818 48.559 98.5847 51.0157C96.3514 53.4723 95.1821 56.7136 95.3328 60.0302C95.3328 70.3381 108.775 82.4157 115.472 87.7901C116.52 88.6294 117.823 89.0867 119.166 89.0867C120.509 89.0867 121.812 88.6294 122.86 87.7901C129.557 82.4276 142.999 70.3381 142.999 60.0302C143.15 56.7136 141.981 53.4723 139.747 51.0157C137.514 48.559 134.399 47.0871 131.083 46.9219Z" fill="#454545"/>
</g>
<defs>
<clipPath id="clip0_169_2246">
<rect width="143" height="143" fill="white"/>
</clipPath>
</defs>
</svg>
