<svg width="96" height="96" viewBox="0 0 96 96" fill="none" xmlns="http://www.w3.org/2000/svg">
<g id="left-quote 1" clip-path="url(#clip0_169_2151)">
<g id="Group">
<g id="Group_2">
<path id="Vector" d="M30.5122 43.939C28.1642 43.263 25.8162 42.92 23.5322 42.92C20.0052 42.92 17.0622 43.726 14.7802 44.713C16.9802 36.659 22.2652 22.762 32.7932 21.197C33.7682 21.052 34.5672 20.347 34.8332 19.398L37.1342 11.168C37.3282 10.472 37.2132 9.72703 36.8162 9.12303C36.4192 8.51903 35.7812 8.11603 35.0662 8.01803C34.2892 7.91203 33.4972 7.85803 32.7122 7.85803C20.0752 7.85803 7.56021 21.048 2.27921 39.934C-0.820793 51.014 -1.72979 67.672 5.90621 78.157C10.1792 84.024 16.4132 87.157 24.4352 87.47C24.4682 87.471 24.5002 87.472 24.5332 87.472C34.4312 87.472 43.2082 80.806 45.8782 71.263C47.4732 65.558 46.7522 59.575 43.8462 54.412C40.9712 49.307 36.2362 45.586 30.5122 43.939Z" fill="#ADA8D6" fill-opacity="0.38"/>
<path id="Vector_2" d="M92.4713 54.413C89.5963 49.307 84.8613 45.586 79.1373 43.939C76.7893 43.263 74.4413 42.92 72.1583 42.92C68.6313 42.92 65.6873 43.726 63.4053 44.713C65.6053 36.659 70.8903 22.762 81.4193 21.197C82.3943 21.052 83.1923 20.347 83.4593 19.398L85.7603 11.168C85.9543 10.472 85.8393 9.72703 85.4423 9.12303C85.0463 8.51903 84.4083 8.11603 83.6923 8.01803C82.9163 7.91203 82.1243 7.85803 81.3383 7.85803C68.7013 7.85803 56.1863 21.048 50.9043 39.934C47.8053 51.014 46.8963 67.672 54.5333 78.159C58.8053 84.025 65.0403 87.159 73.0613 87.471C73.0943 87.472 73.1263 87.473 73.1603 87.473C83.0573 87.473 91.8353 80.807 94.5053 71.264C96.0983 65.559 95.3763 59.575 92.4713 54.413Z" fill="#ADA8D6" fill-opacity="0.38"/>
</g>
</g>
</g>
<defs>
<clipPath id="clip0_169_2151">
<rect width="95.333" height="95.332" fill="white"/>
</clipPath>
</defs>
</svg>
