<svg width="146" height="146" viewBox="0 0 146 146" fill="none" xmlns="http://www.w3.org/2000/svg">
<path fill-rule="evenodd" clip-rule="evenodd" d="M141.772 51.8342C141.772 51.8342 132.892 19.9527 108.059 6.7725C83.226 -6.40755 51.845 4.1048 51.845 4.1048C51.845 4.1048 51.8904 4.26909 51.9846 4.57868C51.9446 4.44801 51.9113 4.34387 51.887 4.26688C51.8533 4.16171 51.8348 4.10793 51.8348 4.10793C51.8348 4.10793 19.9534 12.9882 6.77302 37.8208C-6.40695 62.6537 4.1054 94.0348 4.1054 94.0348C4.1054 94.0348 35.987 85.1542 49.1668 60.3217C61.2143 37.6241 53.4678 9.45556 52.0463 4.77971C53.4901 9.44872 62.8607 37.1195 85.558 49.1662C110.391 62.3463 141.772 51.8342 141.772 51.8342ZM37.8214 139.106C12.9888 125.926 4.10853 94.045 4.10853 94.045C4.10853 94.045 35.4899 83.5327 60.3223 96.7129C83.0203 108.76 92.3909 136.43 93.8341 141.1C92.4132 136.423 84.6667 108.255 96.7135 85.5574C109.894 60.7248 141.775 51.8444 141.775 51.8444C141.775 51.8444 152.288 83.2253 139.107 108.058C125.927 132.891 94.0456 141.771 94.0456 141.771C94.0456 141.771 93.9911 141.609 93.8957 141.3C93.9898 141.61 94.0354 141.774 94.0354 141.774C94.0354 141.774 62.6543 152.286 37.8214 139.106Z" fill="#F2C94C"/>
</svg>
