<svg width="286" height="151" viewBox="0 0 286 151" fill="none" xmlns="http://www.w3.org/2000/svg">
<path d="M5.23176 39.509C5.23176 36.819 2.88935 34.638 0 34.638V0C23.4362 0 42.435 17.6888 42.435 39.509V111.491C42.435 114.181 44.7773 116.362 47.6666 116.362C50.5561 116.362 52.8984 114.181 52.8984 111.491V39.509C52.8984 17.6888 71.8972 0 95.3337 0C118.77 0 137.768 17.6888 137.768 39.509V111.491C137.768 114.181 140.111 116.362 143 116.362C145.889 116.362 148.232 114.181 148.232 111.491V39.509C148.232 17.6888 167.23 0 190.666 0C214.103 0 233.102 17.6888 233.102 39.509V111.491C233.102 114.181 235.444 116.362 238.334 116.362C241.223 116.362 243.566 114.181 243.566 111.491V39.509C243.566 17.6888 262.564 0 286 0V34.638C283.111 34.638 280.768 36.819 280.768 39.509V111.491C280.768 133.311 261.77 151 238.334 151C214.897 151 195.898 133.311 195.898 111.491V39.509C195.898 36.819 193.556 34.638 190.666 34.638C187.777 34.638 185.434 36.819 185.434 39.509V111.491C185.434 133.311 166.436 151 143 151C119.564 151 100.566 133.311 100.566 111.491V39.509C100.566 36.819 98.2227 34.638 95.3337 34.638C92.4436 34.638 90.1018 36.819 90.1018 39.509V111.491C90.1018 133.311 71.1028 151 47.6666 151C24.2304 151 5.23176 133.311 5.23176 111.491V39.509Z" fill="#FF99BC"/>
</svg>
