<svg width="58" height="58" viewBox="0 0 58 58" fill="none" xmlns="http://www.w3.org/2000/svg">
<g clip-path="url(#clip0_169_2242)">
<path d="M56.1147 13.8788L48.8382 4.0478C47.9433 2.79677 46.7632 1.77702 45.3957 1.07306C44.0281 0.369107 42.5124 0.00121609 40.9743 -0.000117811H17.0252C15.4945 -0.00155451 13.9854 0.360505 12.6221 1.05626C11.2587 1.75202 10.08 2.76159 9.18307 4.00188L1.77599 13.903C0.569984 15.6035 -0.0528361 17.649 0.000748084 19.7331C0.0543323 21.8172 0.781439 23.8279 2.07324 25.4643L23.3206 55.257C23.9977 56.1144 24.8607 56.8068 25.8445 57.282C26.8283 57.7571 27.9072 58.0026 28.9997 57.9999C30.111 57.9977 31.207 57.7405 32.2033 57.2482C33.1996 56.7559 34.0697 56.0416 34.7466 55.1603L55.8247 25.6987C57.1744 24.0384 57.9351 21.9773 57.9875 19.8383C58.04 17.6993 57.3813 15.6033 56.1147 13.8788ZM44.9304 6.8898L52.2239 16.745C52.2626 16.7981 52.2722 16.861 52.3109 16.9165H40.4886L37.0376 4.83322H40.9743C41.75 4.83562 42.5138 5.02355 43.202 5.38132C43.8902 5.73909 44.4828 6.25631 44.9304 6.8898ZM28.9997 46.2017L22.4747 21.7499H35.5247L28.9997 46.2017ZM22.5376 16.9165L25.9886 4.83322H32.0109L35.4619 16.9165H22.5376ZM13.0908 6.85597C13.5392 6.23099 14.1299 5.72162 14.8139 5.36992C15.498 5.01821 16.256 4.83425 17.0252 4.83322H20.9619L17.5109 16.9165H5.60157C5.6354 16.8634 5.64507 16.7981 5.68374 16.7474L13.0908 6.85597ZM5.91574 22.5353C5.74125 22.2888 5.59149 22.0258 5.46865 21.7499H17.4771L24.7126 48.889L5.91574 22.5353ZM33.2797 48.9132L40.5297 21.7499H52.5792C52.4235 22.1106 52.2264 22.452 51.9919 22.7673L33.2797 48.9132Z" fill="#454545"/>
</g>
<defs>
<clipPath id="clip0_169_2242">
<rect width="58" height="58" fill="white"/>
</clipPath>
</defs>
</svg>
