<svg width="143" height="143" viewBox="0 0 143 143" fill="none" xmlns="http://www.w3.org/2000/svg">
<g id="fi-rr-alarm-clock" clip-path="url(#clip0_169_2247)">
<path id="Vector" d="M77.4588 12.2205V5.95827C77.4588 4.37802 76.8311 2.8625 75.7137 1.74509C74.5963 0.62769 73.0807 -6.10352e-05 71.5005 -6.10352e-05C69.9203 -6.10352e-05 68.4047 0.62769 67.2873 1.74509C66.1699 2.8625 65.5422 4.37802 65.5422 5.95827V12.2205C53.5467 13.2959 42.0808 17.6617 32.4078 24.8368C22.7348 32.0119 15.2302 41.7179 10.7206 52.8854C6.21113 64.0529 4.87178 76.2485 6.85017 88.1285C8.82856 100.009 14.0479 111.112 21.9331 120.215C18.8191 121.756 16.2169 124.164 14.4398 127.149C12.6628 130.134 11.7867 133.57 11.9172 137.042C11.9172 138.622 12.5449 140.137 13.6623 141.255C14.7797 142.372 16.2953 143 17.8755 143C19.4558 143 20.9713 142.372 22.0887 141.255C23.2061 140.137 23.8338 138.622 23.8338 137.042C23.7843 135.205 24.4436 133.42 25.6751 132.056C26.9065 130.693 28.6155 129.856 30.4476 129.719C30.8574 129.641 31.2572 129.517 31.6393 129.349C43.0526 138.202 57.0863 143.006 71.5303 143.006C85.9743 143.006 100.008 138.202 111.421 129.349C111.77 129.51 112.133 129.638 112.506 129.731C114.344 129.856 116.063 130.686 117.304 132.049C118.546 133.411 119.213 135.199 119.167 137.042C119.167 138.622 119.795 140.137 120.912 141.255C122.03 142.372 123.545 143 125.126 143C126.706 143 128.221 142.372 129.339 141.255C130.456 140.137 131.084 138.622 131.084 137.042C131.214 133.57 130.338 130.134 128.561 127.149C126.784 124.164 124.182 121.756 121.068 120.215C128.953 111.112 134.172 100.009 136.151 88.1285C138.129 76.2485 136.79 64.0529 132.28 52.8854C127.771 41.7179 120.266 32.0119 110.593 24.8368C100.92 17.6617 89.4544 13.2959 77.4588 12.2205ZM17.8755 77.4583C17.8755 66.8523 21.0206 56.4844 26.9129 47.6658C32.8053 38.8472 41.1804 31.974 50.9791 27.9152C60.7778 23.8565 71.56 22.7945 81.9622 24.8637C92.3644 26.9328 101.92 32.0401 109.419 39.5397C116.919 47.0393 122.026 56.5943 124.095 66.9966C126.164 77.3988 125.102 88.181 121.044 97.9797C116.985 107.778 110.112 116.153 101.293 122.046C92.4744 127.938 82.1065 131.083 71.5005 131.083C57.2836 131.066 43.6539 125.411 33.6011 115.358C23.5482 105.305 17.8928 91.6752 17.8755 77.4583Z" fill="#454545"/>
<path id="Vector_2" d="M114.488 -4.30848e-05C112.908 -4.30848e-05 111.392 0.627708 110.275 1.74511C109.158 2.86252 108.53 4.37804 108.53 5.95829C108.53 7.53854 109.158 9.05406 110.275 10.1715C111.392 11.2889 112.908 11.9166 114.488 11.9166C116.566 11.7587 118.654 12.0232 120.627 12.6941C122.599 13.365 124.416 14.4285 125.967 15.8204C127.517 17.2123 128.77 18.9039 129.649 20.793C130.528 22.6822 131.016 24.7298 131.082 26.8125C131.082 28.3927 131.71 29.9082 132.827 31.0256C133.945 32.143 135.46 32.7708 137.04 32.7708C138.621 32.7708 140.136 32.143 141.254 31.0256C142.371 29.9082 142.999 28.3927 142.999 26.8125C142.922 23.1689 142.12 19.5772 140.639 16.2473C139.158 12.9175 137.028 9.91644 134.373 7.41978C131.719 4.92311 128.592 2.98095 125.178 1.70692C121.764 0.432899 118.129 -0.147407 114.488 -4.30848e-05Z" fill="#454545"/>
<path id="Vector_3" d="M11.9167 26.8125C11.9831 24.7298 12.4706 22.6822 13.3498 20.793C14.2289 18.9039 15.4816 17.2123 17.0322 15.8204C18.5828 14.4285 20.3992 13.365 22.372 12.6941C24.3447 12.0232 26.4329 11.7587 28.5106 11.9166C30.0909 11.9166 31.6064 11.2889 32.7238 10.1715C33.8412 9.05406 34.469 7.53854 34.469 5.95829C34.469 4.37804 33.8412 2.86252 32.7238 1.74511C31.6064 0.627708 30.0909 -4.30848e-05 28.5106 -4.30848e-05C24.8693 -0.147407 21.2351 0.432899 17.8207 1.70692C14.4063 2.98095 11.2802 4.92311 8.62544 7.41978C5.97065 9.91644 3.84042 12.9175 2.35939 16.2473C0.878349 19.5772 0.0762443 23.1689 0 26.8125C0 28.3927 0.627751 29.9082 1.74516 31.0256C2.86256 32.143 4.37808 32.7708 5.95833 32.7708C7.53858 32.7708 9.05411 32.143 10.1715 31.0256C11.2889 29.9082 11.9167 28.3927 11.9167 26.8125Z" fill="#454545"/>
<path id="Vector_4" d="M77.4591 69.0333V41.7083C77.4591 40.1281 76.8314 38.6126 75.714 37.4952C74.5966 36.3778 73.0811 35.75 71.5008 35.75C69.9206 35.75 68.405 36.3778 67.2876 37.4952C66.1702 38.6126 65.5425 40.1281 65.5425 41.7083V71.5C65.5428 73.0801 66.1708 74.5954 67.2883 75.7125L85.1633 93.5875C86.287 94.6729 87.7921 95.2735 89.3544 95.2599C90.9166 95.2463 92.411 94.6197 93.5158 93.515C94.6205 92.4102 95.2471 90.9158 95.2607 89.3536C95.2743 87.7913 94.6737 86.2862 93.5884 85.1625L77.4591 69.0333Z" fill="#454545"/>
</g>
<defs>
<clipPath id="clip0_169_2247">
<rect width="143" height="143" fill="white"/>
</clipPath>
</defs>
</svg>
