<svg width="33" height="35" viewBox="0 0 33 35" fill="none" xmlns="http://www.w3.org/2000/svg">
<mask id="path-1-outside-1_495_1026" maskUnits="userSpaceOnUse" x="0" y="0" width="33" height="35" fill="black">
<rect fill="white" width="33" height="35"/>
<path d="M13.0354 1.24547C13.2008 1.34574 13.3191 1.45165 13.4512 1.59167C13.5168 1.65834 13.5824 1.72501 13.65 1.79369C13.8648 1.76757 14.055 1.67918 14.2556 1.60107C14.8979 1.38953 15.519 1.4267 16.1336 1.70237C16.4343 1.86763 16.6628 2.07899 16.9055 2.31989C16.9467 2.29906 16.988 2.27823 17.0306 2.25676C17.7044 1.9354 18.3055 1.85959 19.0253 2.09438C19.3778 2.26544 19.6723 2.47876 19.9338 2.77092C19.9994 2.74922 20.065 2.72751 20.1326 2.70515C20.2169 2.67724 20.3012 2.64933 20.3881 2.62058C20.4585 2.59461 20.529 2.56864 20.6016 2.54189C21.2036 2.3627 21.8466 2.40994 22.4157 2.67138C22.9888 3.01102 23.2856 3.50868 23.4922 4.12401C23.5038 4.34555 23.5117 4.56564 23.5161 4.78734C23.5177 4.85209 23.5193 4.91685 23.5209 4.98356C23.5258 5.19035 23.5303 5.39715 23.5347 5.60395C23.538 5.74416 23.5413 5.88438 23.5447 6.02459C23.5528 6.36829 23.5604 6.71199 23.5679 7.0557C23.6269 7.0596 23.686 7.0635 23.7468 7.06752C26.1562 7.24357 28.3331 8.51269 29.9059 10.3001C31.3004 12.0209 32.003 14.0257 32 16.2313C31.9999 16.3079 31.9999 16.3079 31.9999 16.3859C31.9967 17.2383 31.9248 18.0404 31.6688 18.8576C31.645 18.9343 31.645 18.9343 31.6208 19.0125C31.4311 19.6035 31.1774 20.1619 30.8927 20.7134C30.8684 20.7616 30.844 20.8097 30.8189 20.8593C30.2871 21.8474 29.4847 22.6377 28.6932 23.4199C28.586 23.5266 28.4788 23.6334 28.3717 23.7403C28.0833 24.0276 27.7942 24.3143 27.505 24.6008C27.2011 24.9019 26.8978 25.2036 26.5944 25.5051C26.0854 26.011 25.5759 26.5163 25.0661 27.0214C24.4778 27.6043 23.8903 28.188 23.3032 28.7722C22.7975 29.2753 22.2914 29.778 21.7849 30.2803C21.4831 30.5796 21.1814 30.8791 20.8801 31.179C20.5971 31.4607 20.3135 31.7418 20.0295 32.0225C19.9257 32.1253 19.822 32.2282 19.7186 32.3314C18.7744 33.2731 17.9219 33.9893 16.5127 34C14.8122 33.9731 13.8085 32.7825 12.6857 31.6699C12.5831 31.5686 12.4806 31.4672 12.378 31.3659C12.0438 31.0357 11.7101 30.7051 11.3763 30.3744C11.2607 30.26 11.1451 30.1455 11.0295 30.031C10.4863 29.4931 9.9433 28.955 9.40054 28.4168C8.77669 27.7981 8.15221 27.18 7.52721 26.5625C7.04217 26.0832 6.55773 25.6033 6.07371 25.1229C5.78548 24.8369 5.49701 24.5512 5.20791 24.266C4.9358 23.9976 4.66443 23.7285 4.39359 23.4588C4.29479 23.3607 4.19574 23.2628 4.09641 23.1652C3.27521 22.3579 2.57156 21.5063 2.04278 20.4785C1.99578 20.3881 1.99578 20.3881 1.94783 20.2958C1.67417 19.756 1.46614 19.2175 1.30935 18.6321C1.28534 18.5479 1.26133 18.4637 1.2366 18.3769C0.665656 15.9768 1.15096 13.3496 2.44499 11.2653C3.72273 9.36464 5.63866 7.84771 7.89605 7.28122C7.99599 7.28122 8.09592 7.28122 8.19889 7.28122C8.21138 7.23005 8.22387 7.17889 8.23674 7.12617C8.45643 6.699 8.83914 6.40481 9.28721 6.23351C9.56166 6.15364 9.56166 6.15364 9.71307 6.15364C9.71189 6.05966 9.7107 5.96568 9.70947 5.86885C9.70533 5.51721 9.70274 5.16557 9.7006 4.81392C9.69946 4.66227 9.69792 4.51063 9.69594 4.359C9.69316 4.13991 9.69189 3.92086 9.69089 3.70176C9.68972 3.63493 9.68855 3.56811 9.68734 3.49926C9.68716 2.80422 9.84562 2.18318 10.304 1.64717C11.0655 0.940859 12.0957 0.82178 13.0354 1.24547ZM11.2273 2.62058C11.0925 2.8377 11.0572 2.99877 11.0587 3.25212C11.0587 3.31682 11.0587 3.38151 11.0587 3.44816C11.0595 3.51731 11.0602 3.58646 11.0611 3.65771C11.0613 3.72903 11.0615 3.80035 11.0617 3.87384C11.0626 4.10132 11.0645 4.32877 11.0664 4.55625C11.0671 4.7106 11.0678 4.86496 11.0684 5.01932C11.07 5.39744 11.073 5.77552 11.0758 6.15364C11.6755 6.15364 12.2751 6.15364 12.8929 6.15364C12.8964 5.74574 12.8994 5.3379 12.9012 4.92999C12.9019 4.7914 12.903 4.6528 12.9043 4.5142C12.9061 4.31435 12.907 4.11451 12.9077 3.91465C12.9084 3.85324 12.9092 3.79182 12.91 3.72855C12.9101 3.24888 12.8769 2.84629 12.5427 2.47494C12.0513 2.17675 11.6656 2.24757 11.2273 2.62058ZM14.3313 3.07161C14.0098 3.65558 14.079 4.30492 14.09 4.9509C14.0912 5.06767 14.0922 5.18444 14.0931 5.30121C14.0956 5.58538 14.0995 5.8695 14.1042 6.15364C14.1901 6.15733 14.276 6.16101 14.3645 6.1648C14.4796 6.17045 14.5947 6.17613 14.7099 6.18183C14.7662 6.18416 14.8225 6.18648 14.8805 6.18888C14.9366 6.19179 14.9928 6.19469 15.0506 6.19769C15.1013 6.20005 15.1521 6.20241 15.2044 6.20485C15.4753 6.23959 15.7327 6.31044 15.9969 6.37916C16.0045 5.9699 16.0099 5.56069 16.0136 5.15138C16.0151 5.01226 16.0172 4.87315 16.0198 4.73405C16.0235 4.53363 16.0252 4.33327 16.0265 4.13282C16.0281 4.07102 16.0296 4.00922 16.0313 3.94555C16.0314 3.46995 15.8945 3.20223 15.5569 2.85549C15.1167 2.63074 14.6852 2.76961 14.3313 3.07161ZM17.5868 3.44747C17.2529 3.83762 17.2403 4.15198 17.2464 4.65285C17.2463 4.72474 17.2462 4.79662 17.2461 4.87069C17.2462 5.02213 17.2471 5.17358 17.2487 5.32501C17.2509 5.55648 17.2502 5.78783 17.2493 6.0193C17.2497 6.16676 17.2504 6.31422 17.2512 6.46167C17.251 6.53066 17.2507 6.59966 17.2505 6.67074C17.2559 7.03553 17.2711 7.28659 17.5111 7.5819C17.7731 7.79744 18.0034 7.84757 18.3442 7.83414C18.5979 7.78928 18.757 7.67063 18.9496 7.50673C19.0832 7.29076 19.1205 7.12726 19.123 6.87544C19.124 6.8107 19.125 6.74596 19.1259 6.67926C19.1261 6.60988 19.1263 6.5405 19.1265 6.46901C19.127 6.39709 19.1275 6.32517 19.128 6.25107C19.1287 6.09905 19.1291 5.94702 19.1291 5.795C19.1294 5.56302 19.1322 5.33115 19.135 5.09919C19.1355 4.95129 19.1358 4.80339 19.1359 4.6555C19.137 4.58642 19.1381 4.51734 19.1392 4.44617C19.1362 4.0264 19.0866 3.77689 18.7982 3.44747C18.367 3.18536 18.0156 3.15632 17.5868 3.44747ZM20.6152 3.97367C20.391 4.33278 20.3536 4.64544 20.3553 5.05866C20.3549 5.11851 20.3545 5.17836 20.3541 5.24002C20.3536 5.36606 20.3537 5.4921 20.3543 5.61814C20.355 5.80987 20.3528 6.00143 20.3504 6.19314C20.3503 6.31612 20.3503 6.43911 20.3505 6.56209C20.3497 6.6188 20.3488 6.67551 20.3479 6.73394C20.3534 7.14796 20.4504 7.39209 20.6909 7.73225C20.9861 7.91822 21.1978 7.98495 21.5379 7.92017C21.8294 7.83043 21.9664 7.69043 22.1294 7.43156C22.2535 7.18513 22.2207 6.91206 22.2231 6.64108C22.2238 6.57729 22.2244 6.5135 22.225 6.44778C22.226 6.31256 22.2269 6.17733 22.2275 6.0421C22.2288 5.83601 22.2321 5.63001 22.2354 5.42395C22.2362 5.2925 22.2368 5.16105 22.2373 5.02959C22.2387 4.96827 22.24 4.90694 22.2414 4.84375C22.2398 4.44323 22.1716 4.2152 21.9023 3.8985C21.5029 3.63417 20.983 3.65146 20.6152 3.97367ZM9.48595 7.5819C9.38726 7.7284 9.38726 7.7284 9.32033 7.90138C9.29584 7.95758 9.27134 8.01379 9.2461 8.07169C9.08187 8.55858 9.08406 9.06544 9.06481 9.57395C9.06171 9.65487 9.0586 9.73578 9.05541 9.81915C9.04693 10.0506 9.03913 10.2821 9.03169 10.5136C9.02981 10.5684 9.02793 10.6233 9.026 10.6798C8.96168 12.7628 9.60925 14.4059 10.7293 16.135C11.6896 17.6214 12.3719 19.0614 12.6657 20.8121C15.439 20.8121 18.2122 20.8121 21.0695 20.8121C21.2568 19.547 21.2568 19.547 21.448 18.2563C21.5639 17.6131 21.6819 16.9712 21.8076 16.33C21.8531 16.096 21.8984 15.862 21.9435 15.6279C21.971 15.4855 21.9987 15.3431 22.0266 15.2007C22.1779 14.4216 22.2154 13.6782 22.2125 12.8862C22.2124 12.7741 22.2122 12.6621 22.2122 12.55C22.2119 12.2569 22.2111 11.9638 22.2103 11.6706C22.2095 11.3708 22.2092 11.071 22.2088 10.7711C22.208 10.1841 22.2067 9.59715 22.2051 9.01016C22.1475 9.02209 22.09 9.03401 22.0306 9.0463C21.2837 9.18917 20.6978 9.11376 20.0418 8.73297C19.8596 8.61642 19.8596 8.61642 19.631 8.6343C19.4796 8.73453 19.3282 8.83476 19.1767 8.93499C18.8399 9.07027 18.5548 9.1057 18.1925 9.10413C18.1035 9.10451 18.0145 9.1049 17.9228 9.1053C17.6611 9.08522 17.4524 9.02811 17.2083 8.93499C17.1917 8.9877 17.1751 9.04042 17.158 9.09473C16.9645 9.66973 16.7461 10.1595 16.2335 10.5136C16.1539 10.5508 16.1539 10.5508 16.0727 10.5888C16.1486 10.7778 16.2249 10.9667 16.3024 11.1552C16.3281 11.2179 16.3538 11.2806 16.3802 11.3452C16.4061 11.4081 16.4319 11.471 16.4586 11.5357C16.5983 11.9052 16.6188 12.2492 16.6215 12.6419C16.6231 12.6971 16.6247 12.7523 16.6263 12.8091C16.6291 13.2016 16.5621 13.4734 16.3755 13.8211C16.1446 13.9358 15.9483 13.914 15.6941 13.8963C15.5522 13.8164 15.5522 13.8164 15.467 13.6708C15.3896 13.3424 15.3925 13.0394 15.4007 12.703C15.4032 12.0554 15.2473 11.5778 14.8075 11.0919C14.4685 10.8429 14.0751 10.8856 13.6689 10.8941C13.4989 10.8937 13.329 10.893 13.159 10.8921C13.0469 10.8937 13.0469 10.8937 12.9326 10.8953C12.7414 10.8894 12.7414 10.8894 12.5143 10.8143C12.4994 10.7079 12.4854 10.6014 12.4717 10.4948C12.4599 10.4058 12.4599 10.4058 12.4478 10.3151C12.4386 10.1373 12.4616 10.0061 12.5143 9.83705C12.7761 9.75802 13.019 9.7514 13.2918 9.74866C13.3841 9.74687 13.4764 9.74508 13.5714 9.74323C13.7648 9.74002 13.9583 9.73766 14.1517 9.73618C14.6783 9.72433 15.0432 9.70875 15.467 9.38602C15.7156 9.1202 15.791 8.91381 15.8077 8.55913C15.7882 8.11543 15.6178 7.87673 15.2996 7.57185C15.0353 7.39622 14.8801 7.3943 14.5638 7.39504C14.4869 7.39461 14.4869 7.39461 14.4084 7.39417C14.2399 7.39362 14.0714 7.39522 13.9028 7.39691C13.7853 7.39709 13.6677 7.39716 13.5502 7.39712C13.3042 7.39735 13.0582 7.3986 12.8123 7.40062C12.4972 7.40317 12.1821 7.40375 11.867 7.40363C11.6244 7.40367 11.3818 7.4045 11.1393 7.40559C11.0231 7.40606 10.9069 7.40636 10.7907 7.40647C10.6283 7.4068 10.466 7.40812 10.3036 7.40972C10.2113 7.41029 10.119 7.41087 10.0238 7.41146C9.79888 7.4307 9.6719 7.45851 9.48595 7.5819ZM23.4922 8.33362C23.4919 8.40273 23.4916 8.47185 23.4913 8.54306C23.4884 9.204 23.4841 9.86491 23.4782 10.5258C23.4753 10.8654 23.4728 11.2049 23.4716 11.5444C23.4658 13.1082 23.4238 14.6126 23.1136 16.1515C23.0899 16.2754 23.0663 16.3993 23.0428 16.5232C22.9903 16.7953 22.9346 17.0666 22.8772 17.3377C22.7142 18.1092 22.5557 18.8814 22.437 19.661C22.4238 19.7458 22.4238 19.7458 22.4103 19.8323C22.359 20.1894 22.3267 20.5282 22.3565 20.8873C22.4723 21.0216 22.4723 21.0216 22.6404 21.0846C23.0236 21.2839 23.2034 21.5305 23.3407 21.9397C23.3496 22.0952 23.3541 22.2511 23.3563 22.4069C23.3578 22.5032 23.3593 22.5995 23.3609 22.6987C23.3621 22.8038 23.3634 22.909 23.3647 23.0141C23.3663 23.1216 23.3678 23.2292 23.3695 23.3367C23.3736 23.6196 23.3774 23.9025 23.381 24.1853C23.3848 24.4741 23.3891 24.7628 23.3932 25.0515C23.4014 25.6179 23.4091 26.1843 23.4165 26.7506C23.7616 26.4634 24.0916 26.1669 24.4104 25.8511C24.4749 25.7875 24.4749 25.7875 24.5408 25.7227C24.6816 25.584 24.8221 25.445 24.9626 25.3059C25.0112 25.2579 25.0598 25.2099 25.1098 25.1604C25.3672 24.9059 25.6244 24.6513 25.8814 24.3964C26.1442 24.1359 26.4076 23.8762 26.6712 23.6166C26.8762 23.4145 27.0807 23.2118 27.285 23.009C27.3818 22.9132 27.4787 22.8175 27.5759 22.7221C29.417 20.9117 30.7031 18.8513 30.7177 16.2078C30.6904 14.1689 29.9346 12.3269 28.5647 10.8143C28.5129 10.7566 28.461 10.699 28.4076 10.6396C27.2644 9.43734 25.5624 8.5122 23.8921 8.36812C23.7798 8.35832 23.7798 8.35832 23.6651 8.34833C23.608 8.34347 23.551 8.33862 23.4922 8.33362ZM4.64055 10.6639C4.58141 10.7208 4.52227 10.7777 4.46134 10.8363C3.01242 12.3236 2.32239 14.3775 2.34281 16.4188C2.42168 19.1643 3.85008 21.0305 5.73597 22.8943C5.86385 23.0212 5.9917 23.1481 6.11952 23.275C6.38578 23.5393 6.65229 23.8033 6.919 24.0671C7.26165 24.406 7.60379 24.7454 7.94577 25.085C8.20891 25.3463 8.47224 25.6073 8.73565 25.8683C8.862 25.9935 8.9883 26.1188 9.11455 26.2441C9.28996 26.4181 9.46562 26.5918 9.64136 26.7655C9.72005 26.8437 9.72005 26.8437 9.80033 26.9235C9.84786 26.9703 9.8954 27.0172 9.94437 27.0655C9.98585 27.1066 10.0273 27.1476 10.0701 27.1899C10.1549 27.2852 10.1549 27.2852 10.243 27.2768C10.2433 27.2104 10.2436 27.1439 10.2439 27.0754C10.2467 26.4472 10.2511 25.8191 10.257 25.191C10.2599 24.8681 10.2624 24.5452 10.2636 24.2223C10.2647 23.9103 10.2673 23.5984 10.2709 23.2864C10.272 23.1678 10.2726 23.0491 10.2727 22.9304C10.274 21.7631 10.274 21.7631 10.6216 21.2631C10.8495 21.083 11.0279 20.9783 11.303 20.8873C11.3216 20.4055 11.2789 20.0255 11.1184 19.5718C11.0981 19.5135 11.0778 19.4552 11.0569 19.3951C10.6405 18.2474 9.96348 17.2524 9.2915 16.2397C8.3149 14.7673 7.80344 13.1172 7.81295 11.3522C7.81306 11.2763 7.81316 11.2004 7.81327 11.1222C7.8137 10.8818 7.81465 10.6413 7.81561 10.4008C7.81599 10.237 7.81634 10.0731 7.81665 9.90928C7.81748 9.50935 7.81874 9.10941 7.82034 8.70948C6.65987 8.70948 5.41276 9.90896 4.64055 10.6639ZM11.5301 22.1652C11.5044 22.3501 11.4836 22.5334 11.4662 22.7192C11.4579 22.8066 11.458 22.8066 11.4495 22.8959C11.3794 23.6706 11.3364 24.4464 11.3077 25.2237C11.3049 25.2984 11.3022 25.3731 11.2993 25.45C11.2422 27.2192 11.25 28.7839 12.5049 30.1433C12.7337 30.3797 12.9752 30.5994 13.2241 30.8146C13.2642 30.8494 13.3043 30.8843 13.3456 30.9202C14.8606 32.2435 14.8606 32.2435 16.7428 32.7086C17.3216 32.6615 17.6914 32.4499 18.1038 32.0505C18.4028 31.7656 18.7124 31.5091 19.0468 31.2657C21.1335 29.7632 21.1335 29.7632 22.2625 27.556C22.5232 25.8154 22.3968 23.9011 22.1294 22.1652C21.9991 22.0358 21.8262 22.0805 21.6484 22.0805C21.5605 22.0803 21.4726 22.08 21.3821 22.0798C21.2848 22.08 21.1875 22.0801 21.0872 22.0803C20.9844 22.0802 20.8816 22.08 20.7787 22.0799C20.4988 22.0795 20.2188 22.0797 19.9388 22.0799C19.6464 22.0801 19.354 22.0799 19.0616 22.0798C18.5705 22.0797 18.0794 22.0799 17.5883 22.0802C17.0197 22.0806 16.4512 22.0805 15.8826 22.0801C15.3953 22.0797 14.908 22.0797 14.4207 22.0799C14.1292 22.08 13.8378 22.08 13.5464 22.0798C13.2725 22.0795 12.9986 22.0797 12.7247 22.0801C12.5756 22.0803 12.4265 22.0801 12.2774 22.0798C12.1456 22.0801 12.1456 22.0801 12.011 22.0805C11.8957 22.0805 11.8957 22.0805 11.7781 22.0805C11.6083 22.0708 11.6083 22.0708 11.5301 22.1652Z"/>
</mask>
<path d="M13.0354 1.24547C13.2008 1.34574 13.3191 1.45165 13.4512 1.59167C13.5168 1.65834 13.5824 1.72501 13.65 1.79369C13.8648 1.76757 14.055 1.67918 14.2556 1.60107C14.8979 1.38953 15.519 1.4267 16.1336 1.70237C16.4343 1.86763 16.6628 2.07899 16.9055 2.31989C16.9467 2.29906 16.988 2.27823 17.0306 2.25676C17.7044 1.9354 18.3055 1.85959 19.0253 2.09438C19.3778 2.26544 19.6723 2.47876 19.9338 2.77092C19.9994 2.74922 20.065 2.72751 20.1326 2.70515C20.2169 2.67724 20.3012 2.64933 20.3881 2.62058C20.4585 2.59461 20.529 2.56864 20.6016 2.54189C21.2036 2.3627 21.8466 2.40994 22.4157 2.67138C22.9888 3.01102 23.2856 3.50868 23.4922 4.12401C23.5038 4.34555 23.5117 4.56564 23.5161 4.78734C23.5177 4.85209 23.5193 4.91685 23.5209 4.98356C23.5258 5.19035 23.5303 5.39715 23.5347 5.60395C23.538 5.74416 23.5413 5.88438 23.5447 6.02459C23.5528 6.36829 23.5604 6.71199 23.5679 7.0557C23.6269 7.0596 23.686 7.0635 23.7468 7.06752C26.1562 7.24357 28.3331 8.51269 29.9059 10.3001C31.3004 12.0209 32.003 14.0257 32 16.2313C31.9999 16.3079 31.9999 16.3079 31.9999 16.3859C31.9967 17.2383 31.9248 18.0404 31.6688 18.8576C31.645 18.9343 31.645 18.9343 31.6208 19.0125C31.4311 19.6035 31.1774 20.1619 30.8927 20.7134C30.8684 20.7616 30.844 20.8097 30.8189 20.8593C30.2871 21.8474 29.4847 22.6377 28.6932 23.4199C28.586 23.5266 28.4788 23.6334 28.3717 23.7403C28.0833 24.0276 27.7942 24.3143 27.505 24.6008C27.2011 24.9019 26.8978 25.2036 26.5944 25.5051C26.0854 26.011 25.5759 26.5163 25.0661 27.0214C24.4778 27.6043 23.8903 28.188 23.3032 28.7722C22.7975 29.2753 22.2914 29.778 21.7849 30.2803C21.4831 30.5796 21.1814 30.8791 20.8801 31.179C20.5971 31.4607 20.3135 31.7418 20.0295 32.0225C19.9257 32.1253 19.822 32.2282 19.7186 32.3314C18.7744 33.2731 17.9219 33.9893 16.5127 34C14.8122 33.9731 13.8085 32.7825 12.6857 31.6699C12.5831 31.5686 12.4806 31.4672 12.378 31.3659C12.0438 31.0357 11.7101 30.7051 11.3763 30.3744C11.2607 30.26 11.1451 30.1455 11.0295 30.031C10.4863 29.4931 9.9433 28.955 9.40054 28.4168C8.77669 27.7981 8.15221 27.18 7.52721 26.5625C7.04217 26.0832 6.55773 25.6033 6.07371 25.1229C5.78548 24.8369 5.49701 24.5512 5.20791 24.266C4.9358 23.9976 4.66443 23.7285 4.39359 23.4588C4.29479 23.3607 4.19574 23.2628 4.09641 23.1652C3.27521 22.3579 2.57156 21.5063 2.04278 20.4785C1.99578 20.3881 1.99578 20.3881 1.94783 20.2958C1.67417 19.756 1.46614 19.2175 1.30935 18.6321C1.28534 18.5479 1.26133 18.4637 1.2366 18.3769C0.665656 15.9768 1.15096 13.3496 2.44499 11.2653C3.72273 9.36464 5.63866 7.84771 7.89605 7.28122C7.99599 7.28122 8.09592 7.28122 8.19889 7.28122C8.21138 7.23005 8.22387 7.17889 8.23674 7.12617C8.45643 6.699 8.83914 6.40481 9.28721 6.23351C9.56166 6.15364 9.56166 6.15364 9.71307 6.15364C9.71189 6.05966 9.7107 5.96568 9.70947 5.86885C9.70533 5.51721 9.70274 5.16557 9.7006 4.81392C9.69946 4.66227 9.69792 4.51063 9.69594 4.359C9.69316 4.13991 9.69189 3.92086 9.69089 3.70176C9.68972 3.63493 9.68855 3.56811 9.68734 3.49926C9.68716 2.80422 9.84562 2.18318 10.304 1.64717C11.0655 0.940859 12.0957 0.82178 13.0354 1.24547ZM11.2273 2.62058C11.0925 2.8377 11.0572 2.99877 11.0587 3.25212C11.0587 3.31682 11.0587 3.38151 11.0587 3.44816C11.0595 3.51731 11.0602 3.58646 11.0611 3.65771C11.0613 3.72903 11.0615 3.80035 11.0617 3.87384C11.0626 4.10132 11.0645 4.32877 11.0664 4.55625C11.0671 4.7106 11.0678 4.86496 11.0684 5.01932C11.07 5.39744 11.073 5.77552 11.0758 6.15364C11.6755 6.15364 12.2751 6.15364 12.8929 6.15364C12.8964 5.74574 12.8994 5.3379 12.9012 4.92999C12.9019 4.7914 12.903 4.6528 12.9043 4.5142C12.9061 4.31435 12.907 4.11451 12.9077 3.91465C12.9084 3.85324 12.9092 3.79182 12.91 3.72855C12.9101 3.24888 12.8769 2.84629 12.5427 2.47494C12.0513 2.17675 11.6656 2.24757 11.2273 2.62058ZM14.3313 3.07161C14.0098 3.65558 14.079 4.30492 14.09 4.9509C14.0912 5.06767 14.0922 5.18444 14.0931 5.30121C14.0956 5.58538 14.0995 5.8695 14.1042 6.15364C14.1901 6.15733 14.276 6.16101 14.3645 6.1648C14.4796 6.17045 14.5947 6.17613 14.7099 6.18183C14.7662 6.18416 14.8225 6.18648 14.8805 6.18888C14.9366 6.19179 14.9928 6.19469 15.0506 6.19769C15.1013 6.20005 15.1521 6.20241 15.2044 6.20485C15.4753 6.23959 15.7327 6.31044 15.9969 6.37916C16.0045 5.9699 16.0099 5.56069 16.0136 5.15138C16.0151 5.01226 16.0172 4.87315 16.0198 4.73405C16.0235 4.53363 16.0252 4.33327 16.0265 4.13282C16.0281 4.07102 16.0296 4.00922 16.0313 3.94555C16.0314 3.46995 15.8945 3.20223 15.5569 2.85549C15.1167 2.63074 14.6852 2.76961 14.3313 3.07161ZM17.5868 3.44747C17.2529 3.83762 17.2403 4.15198 17.2464 4.65285C17.2463 4.72474 17.2462 4.79662 17.2461 4.87069C17.2462 5.02213 17.2471 5.17358 17.2487 5.32501C17.2509 5.55648 17.2502 5.78783 17.2493 6.0193C17.2497 6.16676 17.2504 6.31422 17.2512 6.46167C17.251 6.53066 17.2507 6.59966 17.2505 6.67074C17.2559 7.03553 17.2711 7.28659 17.5111 7.5819C17.7731 7.79744 18.0034 7.84757 18.3442 7.83414C18.5979 7.78928 18.757 7.67063 18.9496 7.50673C19.0832 7.29076 19.1205 7.12726 19.123 6.87544C19.124 6.8107 19.125 6.74596 19.1259 6.67926C19.1261 6.60988 19.1263 6.5405 19.1265 6.46901C19.127 6.39709 19.1275 6.32517 19.128 6.25107C19.1287 6.09905 19.1291 5.94702 19.1291 5.795C19.1294 5.56302 19.1322 5.33115 19.135 5.09919C19.1355 4.95129 19.1358 4.80339 19.1359 4.6555C19.137 4.58642 19.1381 4.51734 19.1392 4.44617C19.1362 4.0264 19.0866 3.77689 18.7982 3.44747C18.367 3.18536 18.0156 3.15632 17.5868 3.44747ZM20.6152 3.97367C20.391 4.33278 20.3536 4.64544 20.3553 5.05866C20.3549 5.11851 20.3545 5.17836 20.3541 5.24002C20.3536 5.36606 20.3537 5.4921 20.3543 5.61814C20.355 5.80987 20.3528 6.00143 20.3504 6.19314C20.3503 6.31612 20.3503 6.43911 20.3505 6.56209C20.3497 6.6188 20.3488 6.67551 20.3479 6.73394C20.3534 7.14796 20.4504 7.39209 20.6909 7.73225C20.9861 7.91822 21.1978 7.98495 21.5379 7.92017C21.8294 7.83043 21.9664 7.69043 22.1294 7.43156C22.2535 7.18513 22.2207 6.91206 22.2231 6.64108C22.2238 6.57729 22.2244 6.5135 22.225 6.44778C22.226 6.31256 22.2269 6.17733 22.2275 6.0421C22.2288 5.83601 22.2321 5.63001 22.2354 5.42395C22.2362 5.2925 22.2368 5.16105 22.2373 5.02959C22.2387 4.96827 22.24 4.90694 22.2414 4.84375C22.2398 4.44323 22.1716 4.2152 21.9023 3.8985C21.5029 3.63417 20.983 3.65146 20.6152 3.97367ZM9.48595 7.5819C9.38726 7.7284 9.38726 7.7284 9.32033 7.90138C9.29584 7.95758 9.27134 8.01379 9.2461 8.07169C9.08187 8.55858 9.08406 9.06544 9.06481 9.57395C9.06171 9.65487 9.0586 9.73578 9.05541 9.81915C9.04693 10.0506 9.03913 10.2821 9.03169 10.5136C9.02981 10.5684 9.02793 10.6233 9.026 10.6798C8.96168 12.7628 9.60925 14.4059 10.7293 16.135C11.6896 17.6214 12.3719 19.0614 12.6657 20.8121C15.439 20.8121 18.2122 20.8121 21.0695 20.8121C21.2568 19.547 21.2568 19.547 21.448 18.2563C21.5639 17.6131 21.6819 16.9712 21.8076 16.33C21.8531 16.096 21.8984 15.862 21.9435 15.6279C21.971 15.4855 21.9987 15.3431 22.0266 15.2007C22.1779 14.4216 22.2154 13.6782 22.2125 12.8862C22.2124 12.7741 22.2122 12.6621 22.2122 12.55C22.2119 12.2569 22.2111 11.9638 22.2103 11.6706C22.2095 11.3708 22.2092 11.071 22.2088 10.7711C22.208 10.1841 22.2067 9.59715 22.2051 9.01016C22.1475 9.02209 22.09 9.03401 22.0306 9.0463C21.2837 9.18917 20.6978 9.11376 20.0418 8.73297C19.8596 8.61642 19.8596 8.61642 19.631 8.6343C19.4796 8.73453 19.3282 8.83476 19.1767 8.93499C18.8399 9.07027 18.5548 9.1057 18.1925 9.10413C18.1035 9.10451 18.0145 9.1049 17.9228 9.1053C17.6611 9.08522 17.4524 9.02811 17.2083 8.93499C17.1917 8.9877 17.1751 9.04042 17.158 9.09473C16.9645 9.66973 16.7461 10.1595 16.2335 10.5136C16.1539 10.5508 16.1539 10.5508 16.0727 10.5888C16.1486 10.7778 16.2249 10.9667 16.3024 11.1552C16.3281 11.2179 16.3538 11.2806 16.3802 11.3452C16.4061 11.4081 16.4319 11.471 16.4586 11.5357C16.5983 11.9052 16.6188 12.2492 16.6215 12.6419C16.6231 12.6971 16.6247 12.7523 16.6263 12.8091C16.6291 13.2016 16.5621 13.4734 16.3755 13.8211C16.1446 13.9358 15.9483 13.914 15.6941 13.8963C15.5522 13.8164 15.5522 13.8164 15.467 13.6708C15.3896 13.3424 15.3925 13.0394 15.4007 12.703C15.4032 12.0554 15.2473 11.5778 14.8075 11.0919C14.4685 10.8429 14.0751 10.8856 13.6689 10.8941C13.4989 10.8937 13.329 10.893 13.159 10.8921C13.0469 10.8937 13.0469 10.8937 12.9326 10.8953C12.7414 10.8894 12.7414 10.8894 12.5143 10.8143C12.4994 10.7079 12.4854 10.6014 12.4717 10.4948C12.4599 10.4058 12.4599 10.4058 12.4478 10.3151C12.4386 10.1373 12.4616 10.0061 12.5143 9.83705C12.7761 9.75802 13.019 9.7514 13.2918 9.74866C13.3841 9.74687 13.4764 9.74508 13.5714 9.74323C13.7648 9.74002 13.9583 9.73766 14.1517 9.73618C14.6783 9.72433 15.0432 9.70875 15.467 9.38602C15.7156 9.1202 15.791 8.91381 15.8077 8.55913C15.7882 8.11543 15.6178 7.87673 15.2996 7.57185C15.0353 7.39622 14.8801 7.3943 14.5638 7.39504C14.4869 7.39461 14.4869 7.39461 14.4084 7.39417C14.2399 7.39362 14.0714 7.39522 13.9028 7.39691C13.7853 7.39709 13.6677 7.39716 13.5502 7.39712C13.3042 7.39735 13.0582 7.3986 12.8123 7.40062C12.4972 7.40317 12.1821 7.40375 11.867 7.40363C11.6244 7.40367 11.3818 7.4045 11.1393 7.40559C11.0231 7.40606 10.9069 7.40636 10.7907 7.40647C10.6283 7.4068 10.466 7.40812 10.3036 7.40972C10.2113 7.41029 10.119 7.41087 10.0238 7.41146C9.79888 7.4307 9.6719 7.45851 9.48595 7.5819ZM23.4922 8.33362C23.4919 8.40273 23.4916 8.47185 23.4913 8.54306C23.4884 9.204 23.4841 9.86491 23.4782 10.5258C23.4753 10.8654 23.4728 11.2049 23.4716 11.5444C23.4658 13.1082 23.4238 14.6126 23.1136 16.1515C23.0899 16.2754 23.0663 16.3993 23.0428 16.5232C22.9903 16.7953 22.9346 17.0666 22.8772 17.3377C22.7142 18.1092 22.5557 18.8814 22.437 19.661C22.4238 19.7458 22.4238 19.7458 22.4103 19.8323C22.359 20.1894 22.3267 20.5282 22.3565 20.8873C22.4723 21.0216 22.4723 21.0216 22.6404 21.0846C23.0236 21.2839 23.2034 21.5305 23.3407 21.9397C23.3496 22.0952 23.3541 22.2511 23.3563 22.4069C23.3578 22.5032 23.3593 22.5995 23.3609 22.6987C23.3621 22.8038 23.3634 22.909 23.3647 23.0141C23.3663 23.1216 23.3678 23.2292 23.3695 23.3367C23.3736 23.6196 23.3774 23.9025 23.381 24.1853C23.3848 24.4741 23.3891 24.7628 23.3932 25.0515C23.4014 25.6179 23.4091 26.1843 23.4165 26.7506C23.7616 26.4634 24.0916 26.1669 24.4104 25.8511C24.4749 25.7875 24.4749 25.7875 24.5408 25.7227C24.6816 25.584 24.8221 25.445 24.9626 25.3059C25.0112 25.2579 25.0598 25.2099 25.1098 25.1604C25.3672 24.9059 25.6244 24.6513 25.8814 24.3964C26.1442 24.1359 26.4076 23.8762 26.6712 23.6166C26.8762 23.4145 27.0807 23.2118 27.285 23.009C27.3818 22.9132 27.4787 22.8175 27.5759 22.7221C29.417 20.9117 30.7031 18.8513 30.7177 16.2078C30.6904 14.1689 29.9346 12.3269 28.5647 10.8143C28.5129 10.7566 28.461 10.699 28.4076 10.6396C27.2644 9.43734 25.5624 8.5122 23.8921 8.36812C23.7798 8.35832 23.7798 8.35832 23.6651 8.34833C23.608 8.34347 23.551 8.33862 23.4922 8.33362ZM4.64055 10.6639C4.58141 10.7208 4.52227 10.7777 4.46134 10.8363C3.01242 12.3236 2.32239 14.3775 2.34281 16.4188C2.42168 19.1643 3.85008 21.0305 5.73597 22.8943C5.86385 23.0212 5.9917 23.1481 6.11952 23.275C6.38578 23.5393 6.65229 23.8033 6.919 24.0671C7.26165 24.406 7.60379 24.7454 7.94577 25.085C8.20891 25.3463 8.47224 25.6073 8.73565 25.8683C8.862 25.9935 8.9883 26.1188 9.11455 26.2441C9.28996 26.4181 9.46562 26.5918 9.64136 26.7655C9.72005 26.8437 9.72005 26.8437 9.80033 26.9235C9.84786 26.9703 9.8954 27.0172 9.94437 27.0655C9.98585 27.1066 10.0273 27.1476 10.0701 27.1899C10.1549 27.2852 10.1549 27.2852 10.243 27.2768C10.2433 27.2104 10.2436 27.1439 10.2439 27.0754C10.2467 26.4472 10.2511 25.8191 10.257 25.191C10.2599 24.8681 10.2624 24.5452 10.2636 24.2223C10.2647 23.9103 10.2673 23.5984 10.2709 23.2864C10.272 23.1678 10.2726 23.0491 10.2727 22.9304C10.274 21.7631 10.274 21.7631 10.6216 21.2631C10.8495 21.083 11.0279 20.9783 11.303 20.8873C11.3216 20.4055 11.2789 20.0255 11.1184 19.5718C11.0981 19.5135 11.0778 19.4552 11.0569 19.3951C10.6405 18.2474 9.96348 17.2524 9.2915 16.2397C8.3149 14.7673 7.80344 13.1172 7.81295 11.3522C7.81306 11.2763 7.81316 11.2004 7.81327 11.1222C7.8137 10.8818 7.81465 10.6413 7.81561 10.4008C7.81599 10.237 7.81634 10.0731 7.81665 9.90928C7.81748 9.50935 7.81874 9.10941 7.82034 8.70948C6.65987 8.70948 5.41276 9.90896 4.64055 10.6639ZM11.5301 22.1652C11.5044 22.3501 11.4836 22.5334 11.4662 22.7192C11.4579 22.8066 11.458 22.8066 11.4495 22.8959C11.3794 23.6706 11.3364 24.4464 11.3077 25.2237C11.3049 25.2984 11.3022 25.3731 11.2993 25.45C11.2422 27.2192 11.25 28.7839 12.5049 30.1433C12.7337 30.3797 12.9752 30.5994 13.2241 30.8146C13.2642 30.8494 13.3043 30.8843 13.3456 30.9202C14.8606 32.2435 14.8606 32.2435 16.7428 32.7086C17.3216 32.6615 17.6914 32.4499 18.1038 32.0505C18.4028 31.7656 18.7124 31.5091 19.0468 31.2657C21.1335 29.7632 21.1335 29.7632 22.2625 27.556C22.5232 25.8154 22.3968 23.9011 22.1294 22.1652C21.9991 22.0358 21.8262 22.0805 21.6484 22.0805C21.5605 22.0803 21.4726 22.08 21.3821 22.0798C21.2848 22.08 21.1875 22.0801 21.0872 22.0803C20.9844 22.0802 20.8816 22.08 20.7787 22.0799C20.4988 22.0795 20.2188 22.0797 19.9388 22.0799C19.6464 22.0801 19.354 22.0799 19.0616 22.0798C18.5705 22.0797 18.0794 22.0799 17.5883 22.0802C17.0197 22.0806 16.4512 22.0805 15.8826 22.0801C15.3953 22.0797 14.908 22.0797 14.4207 22.0799C14.1292 22.08 13.8378 22.08 13.5464 22.0798C13.2725 22.0795 12.9986 22.0797 12.7247 22.0801C12.5756 22.0803 12.4265 22.0801 12.2774 22.0798C12.1456 22.0801 12.1456 22.0801 12.011 22.0805C11.8957 22.0805 11.8957 22.0805 11.7781 22.0805C11.6083 22.0708 11.6083 22.0708 11.5301 22.1652Z" fill="#374957"/>
<path d="M13.0354 1.24547C13.2008 1.34574 13.3191 1.45165 13.4512 1.59167C13.5168 1.65834 13.5824 1.72501 13.65 1.79369C13.8648 1.76757 14.055 1.67918 14.2556 1.60107C14.8979 1.38953 15.519 1.4267 16.1336 1.70237C16.4343 1.86763 16.6628 2.07899 16.9055 2.31989C16.9467 2.29906 16.988 2.27823 17.0306 2.25676C17.7044 1.9354 18.3055 1.85959 19.0253 2.09438C19.3778 2.26544 19.6723 2.47876 19.9338 2.77092C19.9994 2.74922 20.065 2.72751 20.1326 2.70515C20.2169 2.67724 20.3012 2.64933 20.3881 2.62058C20.4585 2.59461 20.529 2.56864 20.6016 2.54189C21.2036 2.3627 21.8466 2.40994 22.4157 2.67138C22.9888 3.01102 23.2856 3.50868 23.4922 4.12401C23.5038 4.34555 23.5117 4.56564 23.5161 4.78734C23.5177 4.85209 23.5193 4.91685 23.5209 4.98356C23.5258 5.19035 23.5303 5.39715 23.5347 5.60395C23.538 5.74416 23.5413 5.88438 23.5447 6.02459C23.5528 6.36829 23.5604 6.71199 23.5679 7.0557C23.6269 7.0596 23.686 7.0635 23.7468 7.06752C26.1562 7.24357 28.3331 8.51269 29.9059 10.3001C31.3004 12.0209 32.003 14.0257 32 16.2313C31.9999 16.3079 31.9999 16.3079 31.9999 16.3859C31.9967 17.2383 31.9248 18.0404 31.6688 18.8576C31.645 18.9343 31.645 18.9343 31.6208 19.0125C31.4311 19.6035 31.1774 20.1619 30.8927 20.7134C30.8684 20.7616 30.844 20.8097 30.8189 20.8593C30.2871 21.8474 29.4847 22.6377 28.6932 23.4199C28.586 23.5266 28.4788 23.6334 28.3717 23.7403C28.0833 24.0276 27.7942 24.3143 27.505 24.6008C27.2011 24.9019 26.8978 25.2036 26.5944 25.5051C26.0854 26.011 25.5759 26.5163 25.0661 27.0214C24.4778 27.6043 23.8903 28.188 23.3032 28.7722C22.7975 29.2753 22.2914 29.778 21.7849 30.2803C21.4831 30.5796 21.1814 30.8791 20.8801 31.179C20.5971 31.4607 20.3135 31.7418 20.0295 32.0225C19.9257 32.1253 19.822 32.2282 19.7186 32.3314C18.7744 33.2731 17.9219 33.9893 16.5127 34C14.8122 33.9731 13.8085 32.7825 12.6857 31.6699C12.5831 31.5686 12.4806 31.4672 12.378 31.3659C12.0438 31.0357 11.7101 30.7051 11.3763 30.3744C11.2607 30.26 11.1451 30.1455 11.0295 30.031C10.4863 29.4931 9.9433 28.955 9.40054 28.4168C8.77669 27.7981 8.15221 27.18 7.52721 26.5625C7.04217 26.0832 6.55773 25.6033 6.07371 25.1229C5.78548 24.8369 5.49701 24.5512 5.20791 24.266C4.9358 23.9976 4.66443 23.7285 4.39359 23.4588C4.29479 23.3607 4.19574 23.2628 4.09641 23.1652C3.27521 22.3579 2.57156 21.5063 2.04278 20.4785C1.99578 20.3881 1.99578 20.3881 1.94783 20.2958C1.67417 19.756 1.46614 19.2175 1.30935 18.6321C1.28534 18.5479 1.26133 18.4637 1.2366 18.3769C0.665656 15.9768 1.15096 13.3496 2.44499 11.2653C3.72273 9.36464 5.63866 7.84771 7.89605 7.28122C7.99599 7.28122 8.09592 7.28122 8.19889 7.28122C8.21138 7.23005 8.22387 7.17889 8.23674 7.12617C8.45643 6.699 8.83914 6.40481 9.28721 6.23351C9.56166 6.15364 9.56166 6.15364 9.71307 6.15364C9.71189 6.05966 9.7107 5.96568 9.70947 5.86885C9.70533 5.51721 9.70274 5.16557 9.7006 4.81392C9.69946 4.66227 9.69792 4.51063 9.69594 4.359C9.69316 4.13991 9.69189 3.92086 9.69089 3.70176C9.68972 3.63493 9.68855 3.56811 9.68734 3.49926C9.68716 2.80422 9.84562 2.18318 10.304 1.64717C11.0655 0.940859 12.0957 0.82178 13.0354 1.24547ZM11.2273 2.62058C11.0925 2.8377 11.0572 2.99877 11.0587 3.25212C11.0587 3.31682 11.0587 3.38151 11.0587 3.44816C11.0595 3.51731 11.0602 3.58646 11.0611 3.65771C11.0613 3.72903 11.0615 3.80035 11.0617 3.87384C11.0626 4.10132 11.0645 4.32877 11.0664 4.55625C11.0671 4.7106 11.0678 4.86496 11.0684 5.01932C11.07 5.39744 11.073 5.77552 11.0758 6.15364C11.6755 6.15364 12.2751 6.15364 12.8929 6.15364C12.8964 5.74574 12.8994 5.3379 12.9012 4.92999C12.9019 4.7914 12.903 4.6528 12.9043 4.5142C12.9061 4.31435 12.907 4.11451 12.9077 3.91465C12.9084 3.85324 12.9092 3.79182 12.91 3.72855C12.9101 3.24888 12.8769 2.84629 12.5427 2.47494C12.0513 2.17675 11.6656 2.24757 11.2273 2.62058ZM14.3313 3.07161C14.0098 3.65558 14.079 4.30492 14.09 4.9509C14.0912 5.06767 14.0922 5.18444 14.0931 5.30121C14.0956 5.58538 14.0995 5.8695 14.1042 6.15364C14.1901 6.15733 14.276 6.16101 14.3645 6.1648C14.4796 6.17045 14.5947 6.17613 14.7099 6.18183C14.7662 6.18416 14.8225 6.18648 14.8805 6.18888C14.9366 6.19179 14.9928 6.19469 15.0506 6.19769C15.1013 6.20005 15.1521 6.20241 15.2044 6.20485C15.4753 6.23959 15.7327 6.31044 15.9969 6.37916C16.0045 5.9699 16.0099 5.56069 16.0136 5.15138C16.0151 5.01226 16.0172 4.87315 16.0198 4.73405C16.0235 4.53363 16.0252 4.33327 16.0265 4.13282C16.0281 4.07102 16.0296 4.00922 16.0313 3.94555C16.0314 3.46995 15.8945 3.20223 15.5569 2.85549C15.1167 2.63074 14.6852 2.76961 14.3313 3.07161ZM17.5868 3.44747C17.2529 3.83762 17.2403 4.15198 17.2464 4.65285C17.2463 4.72474 17.2462 4.79662 17.2461 4.87069C17.2462 5.02213 17.2471 5.17358 17.2487 5.32501C17.2509 5.55648 17.2502 5.78783 17.2493 6.0193C17.2497 6.16676 17.2504 6.31422 17.2512 6.46167C17.251 6.53066 17.2507 6.59966 17.2505 6.67074C17.2559 7.03553 17.2711 7.28659 17.5111 7.5819C17.7731 7.79744 18.0034 7.84757 18.3442 7.83414C18.5979 7.78928 18.757 7.67063 18.9496 7.50673C19.0832 7.29076 19.1205 7.12726 19.123 6.87544C19.124 6.8107 19.125 6.74596 19.1259 6.67926C19.1261 6.60988 19.1263 6.5405 19.1265 6.46901C19.127 6.39709 19.1275 6.32517 19.128 6.25107C19.1287 6.09905 19.1291 5.94702 19.1291 5.795C19.1294 5.56302 19.1322 5.33115 19.135 5.09919C19.1355 4.95129 19.1358 4.80339 19.1359 4.6555C19.137 4.58642 19.1381 4.51734 19.1392 4.44617C19.1362 4.0264 19.0866 3.77689 18.7982 3.44747C18.367 3.18536 18.0156 3.15632 17.5868 3.44747ZM20.6152 3.97367C20.391 4.33278 20.3536 4.64544 20.3553 5.05866C20.3549 5.11851 20.3545 5.17836 20.3541 5.24002C20.3536 5.36606 20.3537 5.4921 20.3543 5.61814C20.355 5.80987 20.3528 6.00143 20.3504 6.19314C20.3503 6.31612 20.3503 6.43911 20.3505 6.56209C20.3497 6.6188 20.3488 6.67551 20.3479 6.73394C20.3534 7.14796 20.4504 7.39209 20.6909 7.73225C20.9861 7.91822 21.1978 7.98495 21.5379 7.92017C21.8294 7.83043 21.9664 7.69043 22.1294 7.43156C22.2535 7.18513 22.2207 6.91206 22.2231 6.64108C22.2238 6.57729 22.2244 6.5135 22.225 6.44778C22.226 6.31256 22.2269 6.17733 22.2275 6.0421C22.2288 5.83601 22.2321 5.63001 22.2354 5.42395C22.2362 5.2925 22.2368 5.16105 22.2373 5.02959C22.2387 4.96827 22.24 4.90694 22.2414 4.84375C22.2398 4.44323 22.1716 4.2152 21.9023 3.8985C21.5029 3.63417 20.983 3.65146 20.6152 3.97367ZM9.48595 7.5819C9.38726 7.7284 9.38726 7.7284 9.32033 7.90138C9.29584 7.95758 9.27134 8.01379 9.2461 8.07169C9.08187 8.55858 9.08406 9.06544 9.06481 9.57395C9.06171 9.65487 9.0586 9.73578 9.05541 9.81915C9.04693 10.0506 9.03913 10.2821 9.03169 10.5136C9.02981 10.5684 9.02793 10.6233 9.026 10.6798C8.96168 12.7628 9.60925 14.4059 10.7293 16.135C11.6896 17.6214 12.3719 19.0614 12.6657 20.8121C15.439 20.8121 18.2122 20.8121 21.0695 20.8121C21.2568 19.547 21.2568 19.547 21.448 18.2563C21.5639 17.6131 21.6819 16.9712 21.8076 16.33C21.8531 16.096 21.8984 15.862 21.9435 15.6279C21.971 15.4855 21.9987 15.3431 22.0266 15.2007C22.1779 14.4216 22.2154 13.6782 22.2125 12.8862C22.2124 12.7741 22.2122 12.6621 22.2122 12.55C22.2119 12.2569 22.2111 11.9638 22.2103 11.6706C22.2095 11.3708 22.2092 11.071 22.2088 10.7711C22.208 10.1841 22.2067 9.59715 22.2051 9.01016C22.1475 9.02209 22.09 9.03401 22.0306 9.0463C21.2837 9.18917 20.6978 9.11376 20.0418 8.73297C19.8596 8.61642 19.8596 8.61642 19.631 8.6343C19.4796 8.73453 19.3282 8.83476 19.1767 8.93499C18.8399 9.07027 18.5548 9.1057 18.1925 9.10413C18.1035 9.10451 18.0145 9.1049 17.9228 9.1053C17.6611 9.08522 17.4524 9.02811 17.2083 8.93499C17.1917 8.9877 17.1751 9.04042 17.158 9.09473C16.9645 9.66973 16.7461 10.1595 16.2335 10.5136C16.1539 10.5508 16.1539 10.5508 16.0727 10.5888C16.1486 10.7778 16.2249 10.9667 16.3024 11.1552C16.3281 11.2179 16.3538 11.2806 16.3802 11.3452C16.4061 11.4081 16.4319 11.471 16.4586 11.5357C16.5983 11.9052 16.6188 12.2492 16.6215 12.6419C16.6231 12.6971 16.6247 12.7523 16.6263 12.8091C16.6291 13.2016 16.5621 13.4734 16.3755 13.8211C16.1446 13.9358 15.9483 13.914 15.6941 13.8963C15.5522 13.8164 15.5522 13.8164 15.467 13.6708C15.3896 13.3424 15.3925 13.0394 15.4007 12.703C15.4032 12.0554 15.2473 11.5778 14.8075 11.0919C14.4685 10.8429 14.0751 10.8856 13.6689 10.8941C13.4989 10.8937 13.329 10.893 13.159 10.8921C13.0469 10.8937 13.0469 10.8937 12.9326 10.8953C12.7414 10.8894 12.7414 10.8894 12.5143 10.8143C12.4994 10.7079 12.4854 10.6014 12.4717 10.4948C12.4599 10.4058 12.4599 10.4058 12.4478 10.3151C12.4386 10.1373 12.4616 10.0061 12.5143 9.83705C12.7761 9.75802 13.019 9.7514 13.2918 9.74866C13.3841 9.74687 13.4764 9.74508 13.5714 9.74323C13.7648 9.74002 13.9583 9.73766 14.1517 9.73618C14.6783 9.72433 15.0432 9.70875 15.467 9.38602C15.7156 9.1202 15.791 8.91381 15.8077 8.55913C15.7882 8.11543 15.6178 7.87673 15.2996 7.57185C15.0353 7.39622 14.8801 7.3943 14.5638 7.39504C14.4869 7.39461 14.4869 7.39461 14.4084 7.39417C14.2399 7.39362 14.0714 7.39522 13.9028 7.39691C13.7853 7.39709 13.6677 7.39716 13.5502 7.39712C13.3042 7.39735 13.0582 7.3986 12.8123 7.40062C12.4972 7.40317 12.1821 7.40375 11.867 7.40363C11.6244 7.40367 11.3818 7.4045 11.1393 7.40559C11.0231 7.40606 10.9069 7.40636 10.7907 7.40647C10.6283 7.4068 10.466 7.40812 10.3036 7.40972C10.2113 7.41029 10.119 7.41087 10.0238 7.41146C9.79888 7.4307 9.6719 7.45851 9.48595 7.5819ZM23.4922 8.33362C23.4919 8.40273 23.4916 8.47185 23.4913 8.54306C23.4884 9.204 23.4841 9.86491 23.4782 10.5258C23.4753 10.8654 23.4728 11.2049 23.4716 11.5444C23.4658 13.1082 23.4238 14.6126 23.1136 16.1515C23.0899 16.2754 23.0663 16.3993 23.0428 16.5232C22.9903 16.7953 22.9346 17.0666 22.8772 17.3377C22.7142 18.1092 22.5557 18.8814 22.437 19.661C22.4238 19.7458 22.4238 19.7458 22.4103 19.8323C22.359 20.1894 22.3267 20.5282 22.3565 20.8873C22.4723 21.0216 22.4723 21.0216 22.6404 21.0846C23.0236 21.2839 23.2034 21.5305 23.3407 21.9397C23.3496 22.0952 23.3541 22.2511 23.3563 22.4069C23.3578 22.5032 23.3593 22.5995 23.3609 22.6987C23.3621 22.8038 23.3634 22.909 23.3647 23.0141C23.3663 23.1216 23.3678 23.2292 23.3695 23.3367C23.3736 23.6196 23.3774 23.9025 23.381 24.1853C23.3848 24.4741 23.3891 24.7628 23.3932 25.0515C23.4014 25.6179 23.4091 26.1843 23.4165 26.7506C23.7616 26.4634 24.0916 26.1669 24.4104 25.8511C24.4749 25.7875 24.4749 25.7875 24.5408 25.7227C24.6816 25.584 24.8221 25.445 24.9626 25.3059C25.0112 25.2579 25.0598 25.2099 25.1098 25.1604C25.3672 24.9059 25.6244 24.6513 25.8814 24.3964C26.1442 24.1359 26.4076 23.8762 26.6712 23.6166C26.8762 23.4145 27.0807 23.2118 27.285 23.009C27.3818 22.9132 27.4787 22.8175 27.5759 22.7221C29.417 20.9117 30.7031 18.8513 30.7177 16.2078C30.6904 14.1689 29.9346 12.3269 28.5647 10.8143C28.5129 10.7566 28.461 10.699 28.4076 10.6396C27.2644 9.43734 25.5624 8.5122 23.8921 8.36812C23.7798 8.35832 23.7798 8.35832 23.6651 8.34833C23.608 8.34347 23.551 8.33862 23.4922 8.33362ZM4.64055 10.6639C4.58141 10.7208 4.52227 10.7777 4.46134 10.8363C3.01242 12.3236 2.32239 14.3775 2.34281 16.4188C2.42168 19.1643 3.85008 21.0305 5.73597 22.8943C5.86385 23.0212 5.9917 23.1481 6.11952 23.275C6.38578 23.5393 6.65229 23.8033 6.919 24.0671C7.26165 24.406 7.60379 24.7454 7.94577 25.085C8.20891 25.3463 8.47224 25.6073 8.73565 25.8683C8.862 25.9935 8.9883 26.1188 9.11455 26.2441C9.28996 26.4181 9.46562 26.5918 9.64136 26.7655C9.72005 26.8437 9.72005 26.8437 9.80033 26.9235C9.84786 26.9703 9.8954 27.0172 9.94437 27.0655C9.98585 27.1066 10.0273 27.1476 10.0701 27.1899C10.1549 27.2852 10.1549 27.2852 10.243 27.2768C10.2433 27.2104 10.2436 27.1439 10.2439 27.0754C10.2467 26.4472 10.2511 25.8191 10.257 25.191C10.2599 24.8681 10.2624 24.5452 10.2636 24.2223C10.2647 23.9103 10.2673 23.5984 10.2709 23.2864C10.272 23.1678 10.2726 23.0491 10.2727 22.9304C10.274 21.7631 10.274 21.7631 10.6216 21.2631C10.8495 21.083 11.0279 20.9783 11.303 20.8873C11.3216 20.4055 11.2789 20.0255 11.1184 19.5718C11.0981 19.5135 11.0778 19.4552 11.0569 19.3951C10.6405 18.2474 9.96348 17.2524 9.2915 16.2397C8.3149 14.7673 7.80344 13.1172 7.81295 11.3522C7.81306 11.2763 7.81316 11.2004 7.81327 11.1222C7.8137 10.8818 7.81465 10.6413 7.81561 10.4008C7.81599 10.237 7.81634 10.0731 7.81665 9.90928C7.81748 9.50935 7.81874 9.10941 7.82034 8.70948C6.65987 8.70948 5.41276 9.90896 4.64055 10.6639ZM11.5301 22.1652C11.5044 22.3501 11.4836 22.5334 11.4662 22.7192C11.4579 22.8066 11.458 22.8066 11.4495 22.8959C11.3794 23.6706 11.3364 24.4464 11.3077 25.2237C11.3049 25.2984 11.3022 25.3731 11.2993 25.45C11.2422 27.2192 11.25 28.7839 12.5049 30.1433C12.7337 30.3797 12.9752 30.5994 13.2241 30.8146C13.2642 30.8494 13.3043 30.8843 13.3456 30.9202C14.8606 32.2435 14.8606 32.2435 16.7428 32.7086C17.3216 32.6615 17.6914 32.4499 18.1038 32.0505C18.4028 31.7656 18.7124 31.5091 19.0468 31.2657C21.1335 29.7632 21.1335 29.7632 22.2625 27.556C22.5232 25.8154 22.3968 23.9011 22.1294 22.1652C21.9991 22.0358 21.8262 22.0805 21.6484 22.0805C21.5605 22.0803 21.4726 22.08 21.3821 22.0798C21.2848 22.08 21.1875 22.0801 21.0872 22.0803C20.9844 22.0802 20.8816 22.08 20.7787 22.0799C20.4988 22.0795 20.2188 22.0797 19.9388 22.0799C19.6464 22.0801 19.354 22.0799 19.0616 22.0798C18.5705 22.0797 18.0794 22.0799 17.5883 22.0802C17.0197 22.0806 16.4512 22.0805 15.8826 22.0801C15.3953 22.0797 14.908 22.0797 14.4207 22.0799C14.1292 22.08 13.8378 22.08 13.5464 22.0798C13.2725 22.0795 12.9986 22.0797 12.7247 22.0801C12.5756 22.0803 12.4265 22.0801 12.2774 22.0798C12.1456 22.0801 12.1456 22.0801 12.011 22.0805C11.8957 22.0805 11.8957 22.0805 11.7781 22.0805C11.6083 22.0708 11.6083 22.0708 11.5301 22.1652Z" stroke="black" stroke-width="0.5" mask="url(#path-1-outside-1_495_1026)"/>
</svg>
