<svg width="143" height="143" viewBox="0 0 143 143" fill="none" xmlns="http://www.w3.org/2000/svg">
<g id="fi-rr-gem" clip-path="url(#clip0_169_2245)">
<path id="Vector" d="M137.917 56.4314L133.228 50.05C129.978 45.6285 125.737 42.0312 120.844 39.5476C115.951 37.0639 110.544 35.7632 105.057 35.75H38.0314C32.6571 35.764 27.3578 37.0118 22.5418 39.397C17.7259 41.7823 13.5218 45.2414 10.2537 49.5078L5.36187 55.907C1.39053 61.1462 -0.476654 67.6818 0.127595 74.2282C0.731844 80.7746 3.76379 86.858 8.62703 91.2817L56.2341 137.203C60.4155 140.931 65.8253 142.987 71.4279 142.976C77.1492 142.965 82.6652 140.843 86.9195 137.018L134.205 91.5379C139.096 87.2068 142.189 81.2022 142.876 74.7053C143.563 68.2084 141.794 61.6896 137.917 56.4314ZM123.617 57.0689L128.306 63.4682C128.777 64.123 129.192 64.8166 129.545 65.5417H100.999C100.568 62.6884 99.8245 59.8911 98.7826 57.2L94.9693 47.6667H105.057C108.67 47.6735 112.232 48.5277 115.455 50.1606C118.678 51.7935 121.474 54.1596 123.617 57.0689ZM71.4398 119.691L54.9412 82.3323C54.3444 80.7521 53.8937 79.1207 53.5946 77.4583H89.0586C88.8086 78.7684 88.458 80.0572 88.0099 81.3134L71.4398 119.691ZM54.2202 65.5417C54.4694 64.4734 54.7818 63.4209 55.1557 62.3897L61.0187 47.6667H82.135L87.718 61.627C88.2081 62.9018 88.6064 64.21 88.9096 65.5417H54.2202ZM19.7274 56.7293C21.8817 53.919 24.6522 51.6406 27.8255 50.0694C30.9989 48.4982 34.4904 47.6762 38.0314 47.6667H48.1606L44.091 57.9686C43.1092 60.413 42.3766 62.9502 41.9043 65.5417H13.3758C13.7845 64.6995 14.2776 63.9009 14.8475 63.1583L19.7274 56.7293ZM16.7482 82.5468C15.1939 81.1368 13.9727 79.3987 13.1732 77.4583H41.6064C42.0016 80.6685 42.7756 83.8206 43.9123 86.8487L60.7565 124.982L16.7482 82.5468ZM82.0516 125.208L99.0567 85.8C100.044 83.103 100.731 80.3056 101.106 77.4583H129.891C129.048 79.5038 127.759 81.3356 126.119 82.8208L82.0516 125.208Z" fill="#454545"/>
<path id="Vector_2" d="M71.4994 23.8333C73.0796 23.8333 74.5952 23.2055 75.7126 22.0881C76.83 20.9707 77.4577 19.4552 77.4577 17.8749V5.95827C77.4577 4.37802 76.83 2.8625 75.7126 1.74509C74.5952 0.62769 73.0796 -6.10352e-05 71.4994 -6.10352e-05C69.9191 -6.10352e-05 68.4036 0.62769 67.2862 1.74509C66.1688 2.8625 65.541 4.37802 65.541 5.95827V17.8749C65.541 19.4552 66.1688 20.9707 67.2862 22.0881C68.4036 23.2055 69.9191 23.8333 71.4994 23.8333Z" fill="#454545"/>
<path id="Vector_3" d="M98.6278 23.2368C99.3313 23.5905 100.098 23.8012 100.883 23.8569C101.669 23.9125 102.457 23.8119 103.204 23.5609C103.95 23.31 104.639 22.9135 105.231 22.3946C105.824 21.8757 106.307 21.2445 106.654 20.5376L112.612 8.62096C113.318 7.20664 113.434 5.56964 112.933 4.07008C112.433 2.57053 111.357 1.33125 109.943 0.624879C108.528 -0.0814915 106.891 -0.197094 105.392 0.303503C103.892 0.8041 102.653 1.87989 101.947 3.29421L95.9883 15.2109C95.6325 15.9108 95.4185 16.6741 95.3586 17.4569C95.2988 18.2398 95.3943 19.0267 95.6396 19.7725C95.8848 20.5184 96.2751 21.2084 96.7879 21.8029C97.3008 22.3974 97.926 22.8847 98.6278 23.2368Z" fill="#454545"/>
<path id="Vector_4" d="M36.3755 20.5376C37.0819 21.9559 38.3227 23.0355 39.8251 23.5389C41.3274 24.0423 42.9682 23.9282 44.3865 23.2219C45.8048 22.5155 46.8843 21.2746 47.3877 19.7723C47.8911 18.2699 47.7771 16.6292 47.0707 15.2109L41.1124 3.29421C40.7626 2.59391 40.2784 1.96936 39.6872 1.45621C39.0961 0.943064 38.4097 0.551374 37.6672 0.303503C36.1676 -0.197094 34.5306 -0.0814915 33.1163 0.624879C31.702 1.33125 30.6262 2.57053 30.1256 4.07008C29.625 5.56964 29.7406 7.20664 30.447 8.62096L36.3755 20.5376Z" fill="#454545"/>
</g>
<defs>
<clipPath id="clip0_169_2245">
<rect width="143" height="143" fill="white"/>
</clipPath>
</defs>
</svg>
