<svg width="143" height="143" viewBox="0 0 143 143" fill="none" xmlns="http://www.w3.org/2000/svg">
<g id="fi-rr-hand-holding-heart" clip-path="url(#clip0_169_2250)">
<path id="Vector" d="M53.4165 143H23.8333C17.5123 143 11.4502 140.489 6.98062 136.019C2.51101 131.55 0 125.488 0 119.167V89.375C0 83.054 2.51101 76.9919 6.98062 72.5223C11.4502 68.0527 17.5123 65.5417 23.8333 65.5417H76.6063C79.831 65.5432 83.0006 66.3771 85.8085 67.9627C88.6164 69.5483 90.9675 71.8318 92.6342 74.5924L111.802 53.5297C113.388 51.7862 115.301 50.3723 117.433 49.3687C119.566 48.3652 121.875 47.7917 124.229 47.681C126.583 47.5703 128.935 47.9247 131.152 48.7237C133.369 49.5228 135.407 50.751 137.149 52.338C140.625 55.5312 142.708 59.9616 142.95 64.6755C143.192 69.3893 141.573 74.0096 138.442 77.5417L97.9252 123.046C92.331 129.32 85.4739 134.341 77.8035 137.78C70.1331 141.219 61.8225 142.998 53.4165 143ZM23.8333 77.4583C20.6728 77.4583 17.6418 78.7138 15.407 80.9486C13.1722 83.1835 11.9167 86.2145 11.9167 89.375V119.167C11.9167 122.327 13.1722 125.358 15.407 127.593C17.6418 129.828 20.6728 131.083 23.8333 131.083H53.4165C60.137 131.081 66.7811 129.658 72.9133 126.908C79.0455 124.158 84.5274 120.143 88.9996 115.127L129.546 69.6172C130.599 68.4314 131.144 66.8796 131.063 65.296C130.983 63.7124 130.284 62.2237 129.117 61.1504C127.93 60.0834 126.374 59.5212 124.779 59.5833C123.989 59.6168 123.213 59.8073 122.497 60.1439C121.781 60.4805 121.139 60.9563 120.609 61.5436L94.237 90.5667C93.0792 93.7709 91.0732 96.6006 88.433 98.7539C85.7927 100.907 82.6174 102.303 79.2458 102.793L48.4949 107.19C46.9304 107.415 45.3409 107.009 44.076 106.061C42.8111 105.113 41.9744 103.702 41.75 102.138C41.5256 100.573 41.9319 98.9838 42.8795 97.7189C43.827 96.454 45.2383 95.6173 46.8027 95.3929L77.5596 91.0016C79.2669 90.763 80.8199 89.8852 81.905 88.5456C82.9901 87.206 83.5262 85.5046 83.4052 83.785C83.2841 82.0653 82.5149 80.4557 81.2529 79.2814C79.9909 78.1071 78.3302 77.4555 76.6063 77.4583H23.8333ZM65.5417 54.0659C62.8411 54.0732 60.2193 53.1565 58.1116 51.4681C47.911 43.2813 35.75 30.9833 35.75 19.0667C35.6037 14.1711 37.4021 9.41682 40.7519 5.84372C44.1017 2.27062 48.7302 0.169528 53.625 0C58.0779 0.0173437 62.3502 1.76258 65.5417 4.86796C68.7331 1.76258 73.0054 0.0173437 77.4583 0C82.3532 0.169528 86.9816 2.27062 90.3314 5.84372C93.6812 9.41682 95.4796 14.1711 95.3333 19.0667C95.3333 30.9833 83.1724 43.2813 72.9658 51.474C70.8589 53.159 68.2395 54.0735 65.5417 54.0659ZM53.625 11.9167C51.8932 12.0904 50.2988 12.9369 49.1845 14.2739C48.0703 15.611 47.5253 17.3319 47.6667 19.0667C47.6667 24.4292 54.5247 33.3071 65.5774 42.179C76.5586 33.3071 83.4167 24.4292 83.4167 19.0667C83.558 17.3319 83.013 15.611 81.8988 14.2739C80.7846 12.9369 79.1901 12.0904 77.4583 11.9167C75.7265 12.0904 74.1321 12.9369 73.0179 14.2739C71.9036 15.611 71.3586 17.3319 71.5 19.0667C71.5 20.6469 70.8722 22.1624 69.7548 23.2798C68.6374 24.3972 67.1219 25.025 65.5417 25.025C63.9614 25.025 62.4459 24.3972 61.3285 23.2798C60.2111 22.1624 59.5833 20.6469 59.5833 19.0667C59.7247 17.3319 59.1797 15.611 58.0655 14.2739C56.9512 12.9369 55.3568 12.0904 53.625 11.9167Z" fill="#FF99BC"/>
</g>
<defs>
<clipPath id="clip0_169_2250">
<rect width="143" height="143" fill="white"/>
</clipPath>
</defs>
</svg>
