<svg width="96" height="96" viewBox="0 0 96 96" fill="none" xmlns="http://www.w3.org/2000/svg">
<g id="left-quote 2" clip-path="url(#clip0_169_2156)">
<g id="Group">
<g id="Group_2">
<path id="Vector" d="M64.8208 43.9389C67.1688 43.2629 69.5168 42.9199 71.8008 42.9199C75.3278 42.9199 78.2708 43.7259 80.5528 44.7129C78.3528 36.6589 73.0678 22.7619 62.5398 21.1969C61.5648 21.0519 60.7658 20.3469 60.4998 19.3979L58.1988 11.1679C58.0048 10.4719 58.1198 9.72691 58.5168 9.12291C58.9138 8.51891 59.5518 8.11591 60.2668 8.01791C61.0438 7.91191 61.8358 7.85791 62.6208 7.85791C75.2578 7.85791 87.7728 21.0479 93.0538 39.9339C96.1538 51.0139 97.0628 67.6719 89.4268 78.1569C85.1538 84.0239 78.9198 87.1569 70.8978 87.4699C70.8648 87.4709 70.8328 87.4719 70.7998 87.4719C60.9018 87.4719 52.1248 80.8059 49.4548 71.2629C47.8598 65.5579 48.5808 59.5749 51.4868 54.4119C54.3618 49.3069 59.0968 45.5859 64.8208 43.9389Z" fill="#ADA8D6"/>
<path id="Vector_2" d="M2.86172 54.4129C5.73672 49.3069 10.4717 45.5859 16.1957 43.9389C18.5437 43.2629 20.8917 42.9199 23.1747 42.9199C26.7017 42.9199 29.6457 43.7259 31.9277 44.7129C29.7277 36.6589 24.4427 22.7619 13.9137 21.1969C12.9387 21.0519 12.1407 20.3469 11.8737 19.3979L9.57272 11.1679C9.37872 10.4719 9.49372 9.72691 9.89072 9.12291C10.2867 8.51891 10.9247 8.11591 11.6407 8.01791C12.4167 7.91191 13.2087 7.85791 13.9947 7.85791C26.6317 7.85791 39.1467 21.0479 44.4287 39.9339C47.5277 51.0139 48.4367 67.6719 40.7997 78.1589C36.5277 84.0249 30.2927 87.1589 22.2717 87.4709C22.2387 87.4719 22.2067 87.4729 22.1727 87.4729C12.2757 87.4729 3.49773 80.8069 0.827728 71.2639C-0.76527 65.5589 -0.0432739 59.5749 2.86172 54.4129Z" fill="#ADA8D6"/>
</g>
</g>
</g>
<defs>
<clipPath id="clip0_169_2156">
<rect width="95.333" height="95.332" fill="white" transform="matrix(-1 0 0 1 95.333 0)"/>
</clipPath>
</defs>
</svg>
