<svg width="143" height="143" viewBox="0 0 143 143" fill="none" xmlns="http://www.w3.org/2000/svg">
<g id="fi-rr-thumbtack" clip-path="url(#clip0_169_2249)">
<path id="Vector" d="M5.9578 143.003C7.53791 143.002 9.05319 142.374 10.1703 141.257L49.6085 101.819L57.0445 109.517C62.6491 115.439 70.3737 118.898 78.5243 119.134C81.2415 119.142 83.9399 118.684 86.5025 117.781C90.4621 116.418 93.9408 113.934 96.5162 110.632C99.0917 107.33 100.653 103.351 101.011 99.1791C101.658 93.1365 101.21 87.0268 99.6883 81.1432L98.4132 74.9346C98.1717 73.9418 98.1895 72.9035 98.4649 71.9195C98.7404 70.9356 99.2643 70.039 99.9862 69.3159L109.442 59.8541C109.815 59.4796 110.32 59.2658 110.848 59.2582C111.034 59.2237 111.225 59.2417 111.401 59.3101C111.577 59.3786 111.73 59.4947 111.843 59.6455C114.836 62.8193 118.862 64.8219 123.199 65.2937C127.536 65.7655 131.899 64.6755 135.504 62.2195C137.619 60.7114 139.381 58.7603 140.665 56.502C141.95 54.2437 142.726 51.7325 142.941 49.1434C143.156 46.5542 142.804 43.9494 141.91 41.5102C141.015 39.071 139.6 36.8561 137.762 35.0197L108.441 5.68686C105.43 2.60105 101.431 0.671639 97.1418 0.235974C92.8527 -0.199692 88.5469 0.886106 84.9772 3.30353C82.8613 4.81118 81.0995 6.76197 79.8144 9.02003C78.5294 11.2781 77.752 13.7891 77.5365 16.3783C77.321 18.9674 77.6725 21.5724 78.5665 24.0119C79.4605 26.4513 80.8755 28.6666 82.713 30.5033L83.1659 30.9562C83.5072 31.2999 83.6987 31.7647 83.6987 32.2491C83.6987 32.7335 83.5072 33.1983 83.1659 33.5421L73.6325 43.0754C72.9012 43.8052 71.9927 44.3323 70.9961 44.6049C69.9996 44.8776 68.9493 44.8864 67.9483 44.6305L63.0803 43.3852C57.0925 41.8214 50.8716 41.3511 44.7168 41.9969C40.3514 42.4491 36.2064 44.1398 32.7701 46.8697C29.3339 49.5997 26.7498 53.2552 25.3224 57.4052C23.7647 61.6699 23.4575 66.2908 24.4371 70.7242C25.4166 75.1575 27.6421 79.2188 30.8517 82.4302L41.3265 93.2744L1.74525 132.832C0.912223 133.665 0.344952 134.727 0.115153 135.882C-0.114645 137.038 0.00334757 138.236 0.454215 139.324C0.905082 140.413 1.66858 141.343 2.64819 141.998C3.6278 142.653 4.77953 143.002 5.9578 143.003ZM36.5538 61.3734C37.2253 59.3435 38.4707 57.5518 40.1394 56.2151C41.8082 54.8785 43.8286 54.0542 45.9561 53.8421C47.3278 53.6993 48.7061 53.6277 50.0852 53.6276C53.4655 53.6278 56.8317 54.0623 60.1012 54.9206L65.0049 56.1718C68.0092 56.9319 71.1592 56.9006 74.1478 56.0809C77.1363 55.2611 79.8615 53.681 82.0576 51.4945L91.591 41.9612C94.1634 39.3812 95.6079 35.8865 95.6079 32.2432C95.6079 28.5998 94.1634 25.1051 91.591 22.5251L91.1381 22.0723C90.5212 21.4568 90.0468 20.7135 89.7483 19.8947C89.4499 19.076 89.3347 18.2017 89.4108 17.3336C89.4869 16.4655 89.7525 15.6247 90.1889 14.8704C90.6254 14.116 91.2219 13.4667 91.9365 12.9679C93.2079 12.1983 94.7058 11.8906 96.1777 12.0968C97.6495 12.3031 99.0051 13.0106 100.016 14.1L129.355 43.4389C129.972 44.0543 130.446 44.7977 130.745 45.6164C131.043 46.4352 131.158 47.3094 131.082 48.1775C131.006 49.0456 130.74 49.8865 130.304 50.6408C129.868 51.3951 129.271 52.0445 128.556 52.5432C127.271 53.3234 125.754 53.6312 124.267 53.4137C122.779 53.1962 121.414 52.467 120.405 51.3515C119.18 50.0875 117.713 49.0819 116.092 48.3942C114.471 47.7065 112.728 47.3506 110.967 47.3475C107.253 47.3644 103.691 48.8261 101.035 51.423L91.585 60.8789C89.4392 63.0262 87.8756 65.6846 87.0417 68.6034C86.2077 71.5223 86.1308 74.6055 86.8183 77.5622L88.1232 83.8662C89.3255 88.4625 89.6908 93.2378 89.2017 97.9636C89.0592 99.8909 88.3536 101.734 87.1725 103.264C85.9913 104.793 84.3868 105.942 82.5581 106.567C79.5101 107.369 76.2975 107.29 73.2922 106.341C70.2869 105.392 67.6119 103.611 65.5769 101.205L39.3602 74.0945C37.7255 72.4641 36.5923 70.3994 36.0949 68.1448C35.5975 65.8902 35.7568 63.5403 36.5538 61.3734Z" fill="#B4D1C4"/>
</g>
<defs>
<clipPath id="clip0_169_2249">
<rect width="143" height="143" fill="white"/>
</clipPath>
</defs>
</svg>
