<svg width="143" height="143" viewBox="0 0 143 143" fill="none" xmlns="http://www.w3.org/2000/svg">
<g id="fi-rr-rainbow" clip-path="url(#clip0_169_2248)">
<path id="Vector" d="M137.042 125.123C135.461 125.123 133.946 124.495 132.828 123.378C131.711 122.261 131.083 120.745 131.083 119.165V89.3732C127.8 10.3061 15.1699 10.3716 11.9167 89.3732V119.165C11.9167 120.745 11.2889 122.261 10.1715 123.378C9.05411 124.495 7.53858 125.123 5.95833 125.123C4.37809 125.123 2.86256 124.495 1.74516 123.378C0.627751 122.261 0 120.745 0 119.165V89.3732C3.93846 -5.50735 139.097 -5.42989 143 89.3732V119.165C143 120.745 142.372 122.261 141.255 123.378C140.137 124.495 138.622 125.123 137.042 125.123ZM119.167 119.165V89.3732C116.783 26.2148 26.2167 26.2565 23.8333 89.3732V119.165C23.8333 120.745 24.4611 122.261 25.5785 123.378C26.6959 124.495 28.2114 125.123 29.7917 125.123C31.3719 125.123 32.8874 124.495 34.0048 123.378C35.1222 122.261 35.75 120.745 35.75 119.165V89.3732C37.2575 42.1117 105.76 42.1474 107.25 89.3732V119.165C107.25 120.745 107.878 122.261 108.995 123.378C110.113 124.495 111.628 125.123 113.208 125.123C114.789 125.123 116.304 124.495 117.422 123.378C118.539 122.261 119.167 120.745 119.167 119.165ZM95.3333 119.165V89.3732C95.3333 83.0522 92.8223 76.9901 88.3527 72.5204C83.8831 68.0508 77.821 65.5398 71.5 65.5398C65.179 65.5398 59.1169 68.0508 54.6473 72.5204C50.1777 76.9901 47.6667 83.0522 47.6667 89.3732V119.165C47.6667 120.745 48.2944 122.261 49.4118 123.378C50.5292 124.495 52.0448 125.123 53.625 125.123C55.2052 125.123 56.7208 124.495 57.8382 123.378C58.9556 122.261 59.5833 120.745 59.5833 119.165V89.3732C59.5833 86.2127 60.8388 83.1816 63.0736 80.9468C65.3085 78.712 68.3395 77.4565 71.5 77.4565C74.6605 77.4565 77.6915 78.712 79.9264 80.9468C82.1612 83.1816 83.4167 86.2127 83.4167 89.3732V119.165C83.4167 120.745 84.0444 122.261 85.1618 123.378C86.2792 124.495 87.7948 125.123 89.375 125.123C90.9553 125.123 92.4708 124.495 93.5882 123.378C94.7056 122.261 95.3333 120.745 95.3333 119.165Z" fill="#FABCA6"/>
</g>
<defs>
<clipPath id="clip0_169_2248">
<rect width="143" height="143" fill="white"/>
</clipPath>
</defs>
</svg>
