<svg width="72" height="72" viewBox="0 0 72 72" fill="none" xmlns="http://www.w3.org/2000/svg">
<g id="fi-rr-call-incoming" clip-path="url(#clip0_169_2727)">
<path id="Vector" d="M44.9405 21.0691V9.06909C44.9405 8.27344 45.2566 7.51038 45.8192 6.94777C46.3818 6.38516 47.1449 6.06909 47.9405 6.06909C48.7362 6.06909 49.4993 6.38516 50.0619 6.94777C50.6245 7.51038 50.9405 8.27344 50.9405 9.06909V16.9021C52.8305 15.0001 65.0435 2.72409 66.8195 0.948091C67.0963 0.661561 67.4273 0.433014 67.7933 0.275787C68.1593 0.11856 68.553 0.0358013 68.9513 0.0323398C69.3497 0.0288784 69.7447 0.104784 70.1134 0.255626C70.4821 0.406469 70.817 0.629228 71.0987 0.910906C71.3804 1.19258 71.6032 1.52754 71.754 1.89623C71.9049 2.26492 71.9808 2.65996 71.9773 3.0583C71.9738 3.45663 71.8911 3.85029 71.7338 4.2163C71.5766 4.58232 71.3481 4.91335 71.0615 5.19009C69.2855 6.96609 57.1355 19.1851 55.2575 21.0691H62.9405C63.7362 21.0691 64.4993 21.3852 65.0619 21.9478C65.6245 22.5104 65.9405 23.2734 65.9405 24.0691C65.9405 24.8647 65.6245 25.6278 65.0619 26.1904C64.4993 26.753 63.7362 27.0691 62.9405 27.0691H50.9405C49.3492 27.0691 47.8231 26.437 46.6979 25.3117C45.5727 24.1865 44.9405 22.6604 44.9405 21.0691ZM69.2255 50.2861C70.9641 52.0294 71.9404 54.391 71.9404 56.8531C71.9404 59.3152 70.9641 61.6768 69.2255 63.4201L66.4895 66.5701C41.9165 90.0841 -17.8675 30.3181 5.28955 5.67009L8.73955 2.67009C10.4845 0.979728 12.8247 0.0443078 15.254 0.0662036C17.6834 0.0880994 20.0064 1.06555 21.7205 2.78709C21.8135 2.87709 27.3695 10.1011 27.3695 10.1011C29.0133 11.8367 29.9279 14.1372 29.9246 16.5277C29.9212 18.9181 29.0002 21.2161 27.3515 22.9471L23.8775 27.3151C25.8005 31.9862 28.6273 36.2314 32.1956 39.8069C35.7639 43.3823 40.0034 46.2177 44.6705 48.1501L49.0655 44.6551C50.7931 43.0021 53.091 42.078 55.4819 42.0747C57.8729 42.0713 60.1733 42.989 61.9055 44.6371C61.9055 44.6371 69.1325 50.1961 69.2255 50.2861ZM65.1005 54.6481C65.1005 54.6481 57.9215 49.1221 57.8285 49.0321C57.2105 48.4193 56.3754 48.0755 55.505 48.0755C54.6347 48.0755 53.7996 48.4193 53.1815 49.0321C53.1005 49.1101 47.0495 53.9341 47.0495 53.9341C46.6418 54.2587 46.1565 54.4714 45.6415 54.5514C45.1265 54.6313 44.5995 54.5757 44.1125 54.3901C38.0628 52.1393 32.5677 48.6141 27.9998 44.0534C23.4319 39.4927 19.898 34.0033 17.6375 27.9571C17.4371 27.4635 17.3718 26.9254 17.4483 26.3981C17.5247 25.8709 17.7402 25.3735 18.0725 24.9571C18.0725 24.9571 22.8965 18.9151 22.9775 18.8371C23.5904 18.219 23.9342 17.3839 23.9342 16.5136C23.9342 15.6432 23.5904 14.8081 22.9775 14.1901C22.8875 14.1001 17.3615 6.91509 17.3615 6.91509C16.7342 6.35261 15.9156 6.05138 15.0733 6.07313C14.231 6.09489 13.429 6.43798 12.8315 7.03209L9.38155 10.0321C-7.54445 30.3811 44.2715 79.3231 62.1005 62.4811L64.8365 59.3281C65.4816 58.7362 65.8701 57.9158 65.9194 57.0417C65.9687 56.1676 65.6749 55.3088 65.1005 54.6481Z" fill="#454545"/>
</g>
<defs>
<clipPath id="clip0_169_2727">
<rect width="72" height="72" fill="white"/>
</clipPath>
</defs>
</svg>
