<svg width="21" height="22" viewBox="0 0 21 22" fill="none" xmlns="http://www.w3.org/2000/svg">
<path d="M11.019 2C14.899 2 18.019 5.14 18.019 9C18.019 11.8 16.389 14.19 14.019 15.31V20H7.01896V17H6.01896C4.90896 17 4.01896 16.11 4.01896 15V12H2.51896C2.09896 12 1.85896 11.5 2.09896 11.19L4.01896 8.66C4.10707 6.86329 4.88319 5.16939 6.18644 3.92945C7.48968 2.6895 9.2201 1.99861 11.019 2ZM11.019 0C6.42896 0 2.62896 3.42 2.07896 7.9L0.518961 10H0.488961L0.468961 10.03C-0.081039 10.79 -0.151039 11.79 0.278961 12.62C0.638961 13.31 1.27896 13.79 2.01896 13.94V15C2.01896 16.85 3.29896 18.42 5.01896 18.87V22H16.019V16.5C18.519 14.83 20.019 12.06 20.019 9C20.019 4.03 15.979 0 11.019 0ZM15.349 8.3L13.389 8.81L14.829 10.27C15.179 10.61 15.179 11.19 14.829 11.54C14.479 11.89 13.899 11.89 13.559 11.54L12.109 10.1L11.589 12.06C11.469 12.55 10.979 12.82 10.519 12.7C10.4025 12.6708 10.293 12.6189 10.1967 12.5472C10.1004 12.4756 10.0193 12.3855 9.95794 12.2824C9.8966 12.1792 9.85627 12.0649 9.83928 11.9461C9.82229 11.8272 9.82898 11.7062 9.85896 11.59L10.389 9.63L8.42896 10.16C8.31273 10.19 8.19172 10.1967 8.07289 10.1797C7.95406 10.1627 7.83977 10.1224 7.7366 10.061C7.63342 9.99967 7.54341 9.91852 7.47173 9.82223C7.40005 9.72595 7.34813 9.61644 7.31896 9.5C7.19896 9.05 7.47896 8.55 7.95896 8.43L9.91896 7.91L8.47896 6.46C8.32852 6.28817 8.24902 6.06558 8.25659 5.83732C8.26415 5.60907 8.35821 5.39222 8.5197 5.23073C8.68118 5.06925 8.89803 4.97519 9.12628 4.96762C9.35454 4.96006 9.57713 5.03956 9.74896 5.19L11.209 6.63L11.719 4.67C11.839 4.18 12.339 3.9 12.809 4.03C13.299 4.16 13.579 4.65 13.449 5.13L12.919 7.1L14.889 6.57C15.369 6.44 15.859 6.72 15.989 7.21C16.119 7.68 15.839 8.18 15.349 8.3Z" fill="#374957"/>
</svg>
