<svg width="65" height="65" viewBox="0 0 65 65" fill="none" xmlns="http://www.w3.org/2000/svg">
<g clip-path="url(#clip0_169_2253)">
<path d="M51.4583 65H13.5417C9.95151 64.9957 6.50964 63.5676 3.97101 61.029C1.43239 58.4904 0.00430045 55.0485 0 51.4583L0 13.5417C0.00430045 9.95151 1.43239 6.50964 3.97101 3.97101C6.50964 1.43239 9.95151 0.00430045 13.5417 0L51.4583 0C55.0485 0.00430045 58.4904 1.43239 61.029 3.97101C63.5676 6.50964 64.9957 9.95151 65 13.5417V51.4583C64.9957 55.0485 63.5676 58.4904 61.029 61.029C58.4904 63.5676 55.0485 64.9957 51.4583 65ZM13.5417 5.41667C11.3868 5.41667 9.32016 6.27269 7.79642 7.79642C6.27269 9.32016 5.41667 11.3868 5.41667 13.5417V51.4583C5.41667 53.6132 6.27269 55.6798 7.79642 57.2036C9.32016 58.7273 11.3868 59.5833 13.5417 59.5833H51.4583C53.6132 59.5833 55.6798 58.7273 57.2036 57.2036C58.7273 55.6798 59.5833 53.6132 59.5833 51.4583V13.5417C59.5833 11.3868 58.7273 9.32016 57.2036 7.79642C55.6798 6.27269 53.6132 5.41667 51.4583 5.41667H13.5417ZM25.3012 46.0552C24.1722 46.0514 23.0642 45.7497 22.0892 45.1804C21.1259 44.6291 20.3265 43.8318 19.7725 42.8701C19.2186 41.9083 18.9302 40.8167 18.9367 39.7069V25.2931C18.9357 24.1831 19.2268 23.0924 19.7805 22.1303C20.3343 21.1683 21.1313 20.3688 22.0916 19.8121C23.052 19.2554 24.1418 18.961 25.2518 18.9585C26.3619 18.956 27.453 19.2455 28.4158 19.7979L42.7104 26.9344C43.7034 27.4704 44.5349 28.2622 45.1188 29.2278C45.7027 30.1933 46.0177 31.2974 46.0313 32.4257C46.0448 33.554 45.7563 34.6654 45.1958 35.6447C44.6352 36.624 43.8229 37.4355 42.8431 37.9952L28.2831 45.2725C27.375 45.7905 26.3467 46.0604 25.3012 46.0552ZM25.2335 24.3885C25.0843 24.3885 24.9376 24.4277 24.8083 24.5023C24.6679 24.5804 24.5513 24.6953 24.4712 24.8346C24.391 24.9739 24.3503 25.1324 24.3533 25.2931V39.7069C24.3542 39.8652 24.3963 40.0205 24.4754 40.1577C24.5546 40.2948 24.668 40.409 24.8046 40.489C24.9412 40.5691 25.0962 40.6122 25.2545 40.6142C25.4128 40.6162 25.5689 40.577 25.7075 40.5004L40.2675 33.2204C40.3759 33.1356 40.4622 33.0257 40.5188 32.9003C40.5754 32.7748 40.6007 32.6374 40.5925 32.5C40.5959 32.3389 40.555 32.18 40.4743 32.0405C40.3936 31.9011 40.2762 31.7865 40.1348 31.7092L25.851 24.5727C25.6648 24.4585 25.4519 24.395 25.2335 24.3885Z" fill="#374957"/>
</g>
<defs>
<clipPath id="clip0_169_2253">
<rect width="65" height="65" fill="white"/>
</clipPath>
</defs>
</svg>
