<svg width="67" height="67" viewBox="0 0 67 67" fill="none" xmlns="http://www.w3.org/2000/svg">
<g id="fi-rr-shopping-cart" clip-path="url(#clip0_169_2331)">
<path id="Vector" d="M3.59288 11.3816C4.37812 10.4393 5.36122 9.68136 6.47237 9.16173C7.58351 8.64211 8.79544 8.3735 10.0221 8.375H55.1577L55.275 7.39512C55.5149 5.35837 56.4939 3.48046 58.0262 2.11742C59.5585 0.754373 61.5377 0.000954173 63.5886 0L64.2083 0C64.9487 0 65.6588 0.294121 66.1823 0.81766C66.7059 1.3412 67 2.05127 67 2.79167C67 3.53206 66.7059 4.24213 66.1823 4.76567C65.6588 5.28921 64.9487 5.58333 64.2083 5.58333H63.5886C62.9048 5.58342 62.2449 5.83446 61.7339 6.28883C61.2229 6.7432 60.8965 7.3693 60.8165 8.04838L56.9751 40.7109C56.5763 44.1077 54.9443 47.24 52.3887 49.513C49.8331 51.7861 46.5319 53.0417 43.1117 53.0417H13.9583C13.2179 53.0417 12.5079 52.7476 11.9843 52.224C11.4608 51.7005 11.1667 50.9904 11.1667 50.25C11.1667 49.5096 11.4608 48.7995 11.9843 48.276C12.5079 47.7525 13.2179 47.4583 13.9583 47.4583H43.1117C44.8396 47.4535 46.5237 46.9143 47.9331 45.9147C49.3425 44.9151 50.4083 43.5041 50.9842 41.875H17.7075C14.4349 41.8752 11.2662 40.7255 8.75516 38.6267C6.2441 36.528 4.55032 33.6136 3.96975 30.3929L1.77829 18.238C1.55954 17.032 1.6087 15.7926 1.92229 14.6078C2.23587 13.4229 2.80621 12.3215 3.59288 11.3816ZM7.25833 17.2469L9.45258 29.4018C9.80118 31.3365 10.8192 33.0868 12.3284 34.3464C13.8376 35.606 15.7418 36.2946 17.7075 36.2917H51.872L54.4989 13.9583H10.0221C9.61199 13.9559 9.20639 14.0438 8.83413 14.2159C8.46187 14.3879 8.13209 14.6399 7.86824 14.9539C7.60439 15.2678 7.41296 15.636 7.30754 16.0324C7.20213 16.4287 7.18533 16.8434 7.25833 17.2469Z" fill="#374957"/>
<path id="Vector_2" d="M47.4579 67.0019C44.3743 67.0019 41.8746 64.5021 41.8746 61.4185C41.8746 58.3349 44.3743 55.8352 47.4579 55.8352C50.5415 55.8352 53.0412 58.3349 53.0412 61.4185C53.0412 64.5021 50.5415 67.0019 47.4579 67.0019Z" fill="#374957"/>
<path id="Vector_3" d="M19.5417 67.0019C16.4581 67.0019 13.9584 64.5021 13.9584 61.4185C13.9584 58.3349 16.4581 55.8352 19.5417 55.8352C22.6253 55.8352 25.125 58.3349 25.125 61.4185C25.125 64.5021 22.6253 67.0019 19.5417 67.0019Z" fill="#374957"/>
</g>
<defs>
<clipPath id="clip0_169_2331">
<rect width="67" height="67" fill="white" transform="matrix(-1 0 0 1 67 0)"/>
</clipPath>
</defs>
</svg>
