<svg width="214" height="137" viewBox="0 0 214 137" fill="none" xmlns="http://www.w3.org/2000/svg">
<path d="M8.14062 129V117.496H17.3203V129H8.14062ZM9.94727 127.535H15.5137V118.951H9.94727V127.535ZM21.7441 123.912V118.951H19.6348V117.496H23.5605V123.912H21.7441ZM31.5 129.215C30.582 129.215 29.778 129.023 29.0879 128.639C28.3978 128.255 27.8607 127.717 27.4766 127.027C27.0924 126.331 26.9004 125.52 26.9004 124.596V117.496H28.707V124.723C28.707 125.634 28.9609 126.37 29.4688 126.93C29.9831 127.49 30.6569 127.77 31.4902 127.77C32.3236 127.77 32.9941 127.49 33.502 126.93C34.0098 126.37 34.2637 125.634 34.2637 124.723V120.865C34.2637 120.24 34.1237 119.758 33.8438 119.42C33.5703 119.075 33.1797 118.902 32.6719 118.902C32.4505 118.902 32.2194 118.938 31.9785 119.01C31.7376 119.075 31.5 119.163 31.2656 119.273L30.9824 118.062C31.3079 117.854 31.666 117.691 32.0566 117.574C32.4473 117.451 32.8281 117.389 33.1992 117.389C34.0911 117.389 34.7943 117.688 35.3086 118.287C35.8229 118.88 36.0801 119.69 36.0801 120.719V124.596C36.0801 125.52 35.888 126.331 35.5039 127.027C35.1263 127.717 34.5924 128.255 33.9023 128.639C33.2188 129.023 32.418 129.215 31.5 129.215ZM40.123 123.912V118.951H38.0137V117.496H41.9395V123.912H40.123ZM47.0371 117.496V126.959C47.6556 127.219 48.3099 127.428 49 127.584C49.6901 127.734 50.3509 127.809 50.9824 127.809C51.9004 127.809 52.7272 127.678 53.4629 127.418C54.1986 127.151 54.7812 126.747 55.2109 126.207C55.6471 125.66 55.8652 124.97 55.8652 124.137V117.496H57.623V124.303C57.623 125.143 57.4505 125.875 57.1055 126.5C56.7604 127.118 56.2852 127.636 55.6797 128.053C55.0742 128.463 54.3776 128.769 53.5898 128.971C52.8021 129.173 51.9622 129.273 51.0703 129.273C50.1328 129.273 49.1628 129.163 48.1602 128.941C47.1576 128.714 46.1973 128.382 45.2793 127.945V117.496H47.0371ZM49.8008 125.826C50.0482 125.566 50.2305 125.214 50.3477 124.771C50.4714 124.322 50.5332 123.805 50.5332 123.219V117.496H52.3008V122.896C52.3008 123.554 52.2194 124.13 52.0566 124.625C51.9004 125.12 51.6497 125.54 51.3047 125.885L49.8008 125.826ZM63.4336 129.166C62.9453 129.166 62.4277 129.12 61.8809 129.029C61.3405 128.945 60.7741 128.818 60.1816 128.648L60.4746 127.291C61.5488 127.584 62.4928 127.724 63.3066 127.711C64.3743 127.691 65.1849 127.418 65.7383 126.891C66.2917 126.363 66.5684 125.611 66.5684 124.635V118.951H60.582V117.496H68.375V124.244C68.375 125.357 68.1732 126.279 67.7695 127.008C67.3659 127.737 66.793 128.281 66.0508 128.639C65.3151 128.99 64.4427 129.166 63.4336 129.166ZM76.6172 117.496C78.1406 117.496 79.2767 117.861 80.0254 118.59C80.7806 119.312 81.1582 120.416 81.1582 121.9V129H79.3516L79.3418 121.793C79.3418 120.797 79.127 120.074 78.6973 119.625C78.2741 119.176 77.5872 118.951 76.6367 118.951H75.0059C74.791 119.303 74.6185 119.755 74.4883 120.309C74.3646 120.855 74.3027 121.419 74.3027 121.998V125.875C74.3027 126.936 74.0488 127.74 73.541 128.287C73.0397 128.827 72.3138 129.098 71.3633 129.098C71.168 129.098 70.9792 129.088 70.7969 129.068C70.6211 129.055 70.4355 129.036 70.2402 129.01V127.555C70.3574 127.568 70.4714 127.577 70.582 127.584C70.6992 127.59 70.8099 127.594 70.9141 127.594C71.487 127.594 71.9004 127.447 72.1543 127.154C72.4082 126.861 72.5352 126.399 72.5352 125.768V122.135C72.5352 121.555 72.61 120.969 72.7598 120.377C72.916 119.785 73.1341 119.309 73.4141 118.951H71.2559V117.496H76.6172ZM94.0781 117.496C95.6016 117.496 96.7376 117.861 97.4863 118.59C98.2415 119.312 98.6191 120.416 98.6191 121.9V129H96.8125L96.8027 121.793C96.8027 120.797 96.5879 120.074 96.1582 119.625C95.735 119.176 95.0482 118.951 94.0977 118.951H92.4668C92.252 119.303 92.0794 119.755 91.9492 120.309C91.8255 120.855 91.7637 121.419 91.7637 121.998V125.875C91.7637 126.936 91.5098 127.74 91.002 128.287C90.5007 128.827 89.7747 129.098 88.8242 129.098C88.6289 129.098 88.4401 129.088 88.2578 129.068C88.082 129.055 87.8965 129.036 87.7012 129.01V127.555C87.8184 127.568 87.9323 127.577 88.043 127.584C88.1602 127.59 88.2708 127.594 88.375 127.594C88.9479 127.594 89.3613 127.447 89.6152 127.154C89.8691 126.861 89.9961 126.399 89.9961 125.768V122.135C89.9961 121.555 90.071 120.969 90.2207 120.377C90.377 119.785 90.5951 119.309 90.875 118.951H88.7168V117.496H94.0781ZM106.627 129V120.973C106.627 120.348 106.441 119.856 106.07 119.498C105.706 119.133 105.204 118.951 104.566 118.951H100.699V117.496H104.625C105.816 117.496 106.747 117.815 107.418 118.453C108.095 119.085 108.434 119.97 108.434 121.109V129H106.627ZM112.584 123.912V118.951H110.475V117.496H114.4V123.912H112.584ZM117.242 129V127.535H123.424L116.549 117.496H118.59L122.086 122.779L125.758 128.082V129H117.242ZM122.418 124.225L121.295 122.77L124.205 117.496H126.246L122.418 124.225ZM129.557 123.912V118.951H127.447V117.496H131.373V123.912H129.557ZM133.541 129V127.535H139.791L141.598 127.467L142.994 127.613V129H133.541ZM139.791 128.59V121.783C139.791 120.787 139.566 120.068 139.117 119.625C138.674 119.176 137.952 118.951 136.949 118.951H134.166V117.496H137.047C138.544 117.496 139.677 117.861 140.445 118.59C141.214 119.312 141.598 120.393 141.598 121.832V128.59H139.791ZM147.018 117.496V126.959C147.636 127.219 148.29 127.428 148.98 127.584C149.671 127.734 150.331 127.809 150.963 127.809C151.881 127.809 152.708 127.678 153.443 127.418C154.179 127.151 154.762 126.747 155.191 126.207C155.628 125.66 155.846 124.97 155.846 124.137V117.496H157.604V124.303C157.604 125.143 157.431 125.875 157.086 126.5C156.741 127.118 156.266 127.636 155.66 128.053C155.055 128.463 154.358 128.769 153.57 128.971C152.783 129.173 151.943 129.273 151.051 129.273C150.113 129.273 149.143 129.163 148.141 128.941C147.138 128.714 146.178 128.382 145.26 127.945V117.496H147.018ZM149.781 125.826C150.029 125.566 150.211 125.214 150.328 124.771C150.452 124.322 150.514 123.805 150.514 123.219V117.496H152.281V122.896C152.281 123.554 152.2 124.13 152.037 124.625C151.881 125.12 151.63 125.54 151.285 125.885L149.781 125.826ZM166.09 129V117.496H175.27V129H166.09ZM167.896 127.535H173.463V118.951H167.896V127.535ZM183.57 129.215C182.613 129.215 181.77 128.997 181.041 128.561C180.312 128.118 179.742 127.499 179.332 126.705C178.928 125.911 178.72 124.986 178.707 123.932V122.76C178.707 122.252 178.775 121.754 178.912 121.266C179.055 120.771 179.251 120.328 179.498 119.938C179.745 119.54 180.025 119.238 180.338 119.029C180.357 119.016 180.377 119.003 180.396 118.99C180.423 118.971 180.449 118.958 180.475 118.951L180.465 118.922C180.217 118.948 179.902 119.01 179.518 119.107C179.14 119.205 178.769 119.303 178.404 119.4L178.053 118.033C178.561 117.883 179.117 117.753 179.723 117.643C180.328 117.525 180.937 117.438 181.549 117.379C182.167 117.314 182.743 117.281 183.277 117.281C184.352 117.281 185.273 117.493 186.041 117.916C186.809 118.333 187.398 118.935 187.809 119.723C188.225 120.504 188.434 121.448 188.434 122.555V123.932C188.434 124.986 188.232 125.911 187.828 126.705C187.424 127.499 186.858 128.118 186.129 128.561C185.4 128.997 184.547 129.215 183.57 129.215ZM183.57 127.682C184.182 127.682 184.716 127.525 185.172 127.213C185.634 126.9 185.992 126.464 186.246 125.904C186.507 125.344 186.637 124.69 186.637 123.941V122.574C186.637 121.793 186.507 121.122 186.246 120.562C185.992 119.996 185.628 119.563 185.152 119.264C184.677 118.958 184.114 118.805 183.463 118.805C182.877 118.805 182.366 118.961 181.93 119.273C181.5 119.579 181.161 120.022 180.914 120.602C180.673 121.174 180.543 121.861 180.523 122.662V123.941C180.523 124.69 180.65 125.344 180.904 125.904C181.158 126.464 181.513 126.9 181.969 127.213C182.431 127.525 182.965 127.682 183.57 127.682ZM195.436 129V127.574C196.399 127.542 197.174 127.239 197.76 126.666C198.352 126.093 198.648 125.302 198.648 124.293V118.951H191.549V117.496H200.465V124.254C200.465 125.224 200.257 126.061 199.84 126.764C199.423 127.467 198.837 128.01 198.082 128.395C197.327 128.772 196.445 128.974 195.436 129ZM191.773 133.062V124.684C191.773 124.026 191.829 123.521 191.939 123.17C192.05 122.818 192.164 122.519 192.281 122.271H193.766C193.681 122.564 193.619 122.89 193.58 123.248C193.548 123.606 193.531 124.049 193.531 124.576V133.062H191.773ZM210.699 129V121.783C210.699 120.787 210.475 120.068 210.025 119.625C209.576 119.176 208.854 118.951 207.857 118.951H203.688V117.496H207.945C209.449 117.496 210.585 117.861 211.354 118.59C212.128 119.312 212.516 120.393 212.516 121.832V129H210.699ZM203.707 129V125.074C203.707 124.404 203.762 123.893 203.873 123.541C203.984 123.189 204.098 122.89 204.215 122.643H205.699C205.621 122.936 205.562 123.264 205.523 123.629C205.484 123.987 205.465 124.43 205.465 124.957V129H203.707Z" fill="#606263"/>
<g clip-path="url(#clip0_301_935)">
<path d="M124.764 72.0931L119.997 65.6521C119.411 64.8324 118.638 64.1643 117.742 63.7031C116.846 63.2419 115.853 63.0009 114.845 63H99.1541C98.1512 62.9991 97.1625 63.2363 96.2693 63.6921C95.376 64.148 94.6038 64.8094 94.0161 65.622L89.1632 72.1089C88.3731 73.2231 87.965 74.5632 88.0001 75.9287C88.0352 77.2941 88.5116 78.6115 89.358 79.6836L103.279 99.2029C103.722 99.7647 104.288 100.218 104.932 100.53C105.577 100.841 106.284 101.002 106.999 101C107.728 100.999 108.446 100.83 109.098 100.508C109.751 100.185 110.321 99.717 110.765 99.1396L124.574 79.8372C125.459 78.7494 125.957 77.399 125.991 75.9976C126.026 74.5961 125.594 73.2229 124.764 72.0931V72.0931ZM117.437 67.5141L122.215 73.9709C122.241 74.0058 122.247 74.0469 122.272 74.0833H114.527L112.266 66.1667H114.845C115.353 66.1682 115.854 66.2914 116.304 66.5258C116.755 66.7602 117.144 67.099 117.437 67.5141V67.5141ZM106.999 93.2702L102.724 77.25H111.274L106.999 93.2702ZM102.766 74.0833L105.027 66.1667H108.972L111.233 74.0833H102.766ZM96.5764 67.4919C96.8702 67.0825 97.2571 66.7487 97.7053 66.5183C98.1535 66.2879 98.6501 66.1673 99.1541 66.1667H101.733L99.4723 74.0833H91.6696C91.6918 74.0485 91.6981 74.0058 91.7235 73.9725L96.5764 67.4919ZM91.8755 77.7646C91.7612 77.6031 91.663 77.4307 91.5826 77.25H99.4501L104.191 95.0308L91.8755 77.7646ZM109.804 95.0467L114.554 77.25H122.448C122.346 77.4863 122.217 77.71 122.063 77.9166L109.804 95.0467Z" fill="#374957"/>
</g>
<path d="M40.7596 35.5152C43.1291 34.1349 45.2264 33.6726 47.0515 34.1283C48.8809 34.5681 50.468 35.9423 51.8129 38.251L58.2455 49.2933L55.4356 50.9302L48.8905 39.7297C47.988 38.1804 46.999 37.2511 45.9237 36.9417C44.8585 36.6264 43.5867 36.8994 42.1083 37.7606L39.5718 39.2383C39.5562 39.9797 39.6978 40.8398 39.9967 41.8185C40.2998 42.7811 40.7138 43.713 41.2388 44.6142L44.7515 50.6442C45.713 52.2947 46.0466 53.7753 45.7523 55.086C45.4622 56.3807 44.5779 57.4586 43.0996 58.3198C42.7958 58.4968 42.4933 58.6527 42.1921 58.7875C41.9069 58.9265 41.6006 59.0642 41.2732 59.2007L39.9548 56.9375C40.1489 56.8516 40.335 56.7636 40.513 56.6734C40.7012 56.5774 40.8762 56.4821 41.0383 56.3878C41.9293 55.8687 42.4396 55.2663 42.5691 54.5806C42.6985 53.8948 42.4772 53.0609 41.905 52.0787L38.6135 46.4284C38.0885 45.5272 37.6741 44.548 37.3702 43.4909C37.0764 42.4279 36.985 41.4911 37.096 40.6805L33.7393 42.6359L32.4209 40.3728L40.7596 35.5152Z" fill="black"/>
<path d="M75.4398 43.2843C74.4823 43.5588 73.4016 43.7651 72.1977 43.9031C71.0051 44.0378 69.8147 44.0744 68.6267 44.0127L68.5615 41.4896C69.6883 41.5078 70.7796 41.4448 71.8355 41.3005C72.9025 41.153 73.8191 40.9695 74.5851 40.7498C76.4261 40.1975 77.717 39.3214 78.4579 38.1215C79.1988 36.9216 79.3254 35.4711 78.8377 33.7701L76.0177 23.936L68.0423 26.2229C67.8595 26.9459 67.7927 27.8184 67.842 28.8405C67.9025 29.8594 68.0668 30.8363 68.3349 31.7713L68.771 33.292C69.0624 33.3304 69.4229 33.3123 69.8527 33.2379C70.2824 33.1634 70.8295 33.0309 71.4942 32.8403L72.2694 35.5438C71.3344 35.8119 70.5306 36.0059 69.8578 36.1256C69.1851 36.2454 68.5654 36.2951 67.9988 36.2747C67.4434 36.2511 66.8606 36.1744 66.2504 36.0446L65.4464 33.4956C65.1201 32.3578 64.9428 31.2079 64.9143 30.0457C64.8938 28.8691 65.0297 27.8548 65.3218 27.003L62.9055 27.6959L62.1836 25.1782L78.4218 20.5219L81.7941 32.2824C82.3464 34.2086 82.4261 35.9108 82.0332 37.3889C81.637 38.8557 80.8687 40.0878 79.7284 41.0853C78.5848 42.0716 77.1553 42.8045 75.4398 43.2843Z" fill="black"/>
<path d="M104.162 38.2799L103.394 23.8511C103.334 22.7277 102.953 21.862 102.252 21.2539C101.562 20.6334 100.643 20.3538 99.4965 20.4148L92.5454 20.7849L92.4062 18.1695L99.4626 17.7938C101.604 17.6798 103.308 18.1641 104.574 19.2467C105.852 20.317 106.545 21.8761 106.654 23.924L107.409 38.107L104.162 38.2799Z" fill="black"/>
<path d="M119.426 38.9077L121.586 20.9492L119.195 20.6617L119.508 18.0613L125.145 18.7392L122.672 39.2981L119.426 38.9077Z" fill="black"/>
<path d="M133.244 41.0209L134.026 38.503L144.652 41.8064L138.199 20.8769L141.707 21.9676L144.894 32.9168L148.371 43.9936L147.881 45.5714L133.244 41.0209ZM144.692 35.5785L143.539 32.4773L151.359 24.9682L154.867 26.0589L144.692 35.5785Z" fill="black"/>
<path d="M167.784 55.8685L174.372 44.673C175.282 43.1278 175.59 41.8067 175.297 40.7098C175.011 39.6028 174.095 38.5946 172.549 37.6853L166.081 33.8784L167.409 31.6211L174.014 35.5082C176.347 36.8812 177.777 38.4839 178.303 40.3164C178.845 42.1448 178.459 44.175 177.146 46.407L170.602 57.5267L167.784 55.8685ZM156.937 49.4851L160.521 43.395C161.133 42.3547 161.685 41.6124 162.178 41.1681C162.671 40.7237 163.121 40.3632 163.529 40.0864L165.831 41.4415C165.443 41.8247 165.052 42.2812 164.658 42.8111C164.271 43.3309 163.836 43.9999 163.355 44.818L159.664 51.0898L156.937 49.4851Z" fill="black"/>
<defs>
<clipPath id="clip0_301_935">
<rect width="38" height="38" fill="white" transform="translate(88 63)"/>
</clipPath>
</defs>
</svg>
