<svg width="389" height="61" viewBox="0 0 389 61" fill="none" xmlns="http://www.w3.org/2000/svg">
<path d="M4.34375 61V15.8438H0V11.1875H10.0625V61H4.34375ZM21.4062 48L21.4375 11.1875H35.2812C40.1562 11.1875 43.7917 12.3542 46.1875 14.6875C48.5833 17 49.7917 20.5312 49.8125 25.2812V48H44.0312V24.9375C44.0312 21.75 43.3438 19.4375 41.9688 18C40.5938 16.5625 38.3854 15.8438 35.3438 15.8438H27.2188L27.1875 48H21.4062ZM78.9688 31.7188V15.8438H72.2188V11.1875H84.7812V31.7188H78.9688ZM97.6562 48.625C96.5729 48.625 95.5521 48.5625 94.5938 48.4375C93.6354 48.3125 92.6667 48.1458 91.6875 47.9375L91.8438 43.4062C93.1979 43.6771 94.7188 43.8125 96.4062 43.8125C98.0938 43.8125 99.3646 43.3333 100.219 42.375C101.094 41.3958 101.531 39.875 101.531 37.8125V15.8438H94.3125V11.1875H107.344V38.2812C107.344 41.6771 106.5 44.25 104.812 46C103.146 47.75 100.76 48.625 97.6562 48.625ZM114.906 48V43.3125H134.906L140.688 43.0938L145.156 43.5625V48H114.906ZM134.906 46.6875V24.9062C134.906 21.7188 134.188 19.4167 132.75 18C131.333 16.5625 129.021 15.8438 125.812 15.8438H116.906V11.1875H126.125C130.917 11.1875 134.542 12.3542 137 14.6875C139.458 17 140.688 20.4583 140.688 25.0625V46.6875H134.906ZM178.188 48L151.5 11.1875H158L184.656 48H178.188ZM152.812 48V34.6562C152.812 31.2188 153.448 28.4479 154.719 26.3438C155.99 24.2396 157.969 22.6979 160.656 21.7188L162.938 24.7188C159.938 26.0729 158.438 28.6875 158.438 32.5625V48H152.812ZM184.812 11.1875L172.125 33.4062L168.281 28.9375L178.281 11.1875H184.812ZM190.406 15.8438V0H196.188V11.1875H216.188V15.8438H190.406ZM218.375 14.8438L204.875 48H198.656L213.938 11.1875H218.375V14.8438ZM256.906 61V15.8438H238.594V11.1875H262.625V61H256.906ZM276.719 31.7188V15.8438H269.969V11.1875H282.531V31.7188H276.719ZM308.406 48V22.3125C308.406 20.3125 307.812 18.7396 306.625 17.5938C305.458 16.4271 303.854 15.8438 301.812 15.8438H289.438V11.1875H302C305.812 11.1875 308.792 12.2083 310.938 14.25C313.104 16.2708 314.188 19.1042 314.188 22.75V48H308.406ZM320.875 11.1875H350.344V15.8438H344.188V48H338.375V15.8438H320.875V11.1875ZM357.719 48L360.531 24.5938C360.76 22.8646 361.25 21.25 362 19.75C362.75 18.25 363.635 17.0938 364.656 16.2812C364.76 16.1979 364.865 16.125 364.969 16.0625C365.094 15.9792 365.198 15.9062 365.281 15.8438L365.219 15.75C364.302 15.8958 363.135 16.1562 361.719 16.5312C360.323 16.8854 359.031 17.2708 357.844 17.6875L356.5 13.3125C358.104 12.75 359.844 12.2604 361.719 11.8438C363.615 11.4271 365.531 11.1042 367.469 10.875C369.406 10.625 371.219 10.5 372.906 10.5C377.865 10.5 381.646 11.8229 384.25 14.4688C386.875 17.0938 388.198 20.9583 388.219 26.0625V48H373.062V43.3438H382.438V25.4062C382.438 22.1146 381.688 19.625 380.188 17.9375C378.708 16.2292 376.573 15.375 373.781 15.375C371.76 15.375 370.073 16.1562 368.719 17.7188C367.365 19.2604 366.531 21.3646 366.219 24.0312L363.438 48H357.719Z" fill="#454545"/>
</svg>
